<?xml version="1.0" encoding="UTF-8" standalone="no"?>
<!DOCTYPE svg PUBLIC "-//W3C//DTD SVG 1.1//EN" "http://www.w3.org/Graphics/SVG/1.1/DTD/svg11.dtd">
<!-- Generated by Microsoft Visio, SVG Export REF_CLK_BlockDiagram.svg Page-1 -->
<svg xmlns="http://www.w3.org/2000/svg" xmlns:xlink="http://www.w3.org/1999/xlink" xmlns:ev="http://www.w3.org/2001/xml-events"
		xmlns:v="http://schemas.microsoft.com/visio/2003/SVGExtensions/" width="5.95462in" height="3.39624in"
		viewBox="0 0 428.732 244.53" xml:space="preserve" color-interpolation-filters="sRGB" class="st26">
	<v:documentProperties v:langID="1033" v:viewMarkup="false"/>

	<style type="text/css">
	<![CDATA[
		.st1 {fill:#d7e3bf;stroke:#000000;stroke-linecap:round;stroke-linejoin:round;stroke-width:0.75}
		.st2 {fill:#d9958f;stroke:#000000;stroke-linecap:round;stroke-linejoin:round;stroke-width:0.75}
		.st3 {fill:#ccc2d9;stroke:#000000;stroke-linecap:round;stroke-linejoin:round;stroke-width:0.75}
		.st4 {fill:#ddd6e5;stroke:#000000;stroke-linecap:round;stroke-linejoin:round;stroke-width:0.75}
		.st5 {fill:#ffd965;stroke:#000000;stroke-linecap:round;stroke-linejoin:round;stroke-width:0.75}
		.st6 {fill:#fee599;stroke:#000000;stroke-linecap:round;stroke-linejoin:round;stroke-width:0.75}
		.st7 {fill:#000000;font-family:Calibri;font-size:1.00001em}
		.st8 {fill:#b7dde8;stroke:#000000;stroke-linecap:round;stroke-linejoin:round;stroke-width:0.75}
		.st9 {fill:#fbd7bb;stroke:#000000;stroke-linecap:round;stroke-linejoin:round;stroke-width:0.75}
		.st10 {stroke:#000000;stroke-linecap:round;stroke-linejoin:round;stroke-width:0.75}
		.st11 {fill:#ffffff;stroke:#000000;stroke-linecap:round;stroke-linejoin:round;stroke-width:0.75}
		.st12 {marker-end:url(#mrkr4-37);stroke:#000000;stroke-linecap:round;stroke-linejoin:round;stroke-width:0.75}
		.st13 {fill:#000000;fill-opacity:1;stroke:#000000;stroke-opacity:1;stroke-width:0.34246575342466}
		.st14 {fill:#d8d8d8;stroke:#000000;stroke-linecap:round;stroke-linejoin:round;stroke-width:0.75}
		.st15 {font-size:1em}
		.st16 {marker-end:url(#mrkr4-47);stroke:#000000;stroke-linecap:round;stroke-linejoin:round;stroke-width:0.75}
		.st17 {fill:#000000;fill-opacity:1;stroke:#000000;stroke-opacity:1;stroke-width:0.22935779816514}
		.st18 {fill:none;stroke:none;stroke-linecap:round;stroke-linejoin:round;stroke-width:0.75}
		.st19 {fill:#000000;stroke:#000000;stroke-linecap:round;stroke-linejoin:round;stroke-width:0.75}
		.st20 {marker-start:url(#mrkr4-121);stroke:#000000;stroke-linecap:round;stroke-linejoin:round;stroke-width:0.75}
		.st21 {fill:#50632a;font-family:Calibri;font-size:1.00001em}
		.st22 {fill:#7030a0;font-family:Calibri;font-size:1.00001em}
		.st23 {fill:#923931;font-family:Calibri;font-size:1.00001em}
		.st24 {fill:#dcfcd8;stroke:#000000;stroke-linecap:round;stroke-linejoin:round;stroke-width:0.75}
		.st25 {fill:#00b050;stroke:#000000;stroke-linecap:round;stroke-linejoin:round;stroke-width:0.75}
		.st26 {fill:none;fill-rule:evenodd;font-size:12px;overflow:visible;stroke-linecap:square;stroke-miterlimit:3}
	]]>
	</style>

	<defs id="Markers">
		<g id="lend4">
			<path d="M 2 1 L 0 0 L 2 -1 L 2 1 " style="stroke:none"/>
		</g>
		<marker id="mrkr4-37" class="st13" v:arrowType="4" v:arrowSize="0" v:setback="5.84" refX="-5.84" orient="auto"
				markerUnits="strokeWidth" overflow="visible">
			<use xlink:href="#lend4" transform="scale(-2.92,-2.92) "/>
		</marker>
		<marker id="mrkr4-47" class="st17" v:arrowType="4" v:arrowSize="2" v:setback="8.72" refX="-8.72" orient="auto"
				markerUnits="strokeWidth" overflow="visible">
			<use xlink:href="#lend4" transform="scale(-4.36,-4.36) "/>
		</marker>
		<marker id="mrkr4-121" class="st17" v:arrowType="4" v:arrowSize="2" v:setback="8.24" refX="8.24" orient="auto"
				markerUnits="strokeWidth" overflow="visible">
			<use xlink:href="#lend4" transform="scale(4.36) "/>
		</marker>
	</defs>
	<g v:mID="0" v:index="1" v:groupContext="foregroundPage">
		<title>Page-1</title>
		<v:pageProperties v:drawingScale="0.0393701" v:pageScale="0.0393701" v:drawingUnits="24" v:shadowOffsetX="8.50394"
				v:shadowOffsetY="-8.50394"/>
		<g id="shape55-1" v:mID="55" v:groupContext="shape" transform="translate(23.0031,-136.438)">
			<title>Sheet.55</title>
			<rect x="0" y="211.931" width="32.5984" height="32.5984" class="st1"/>
		</g>
		<g id="shape38-3" v:mID="38" v:groupContext="shape" transform="translate(194.499,-113.477)">
			<title>Sheet.38</title>
			<rect x="0" y="223.27" width="25.5118" height="21.2598" class="st2"/>
		</g>
		<g id="shape13-5" v:mID="13" v:groupContext="shape" transform="translate(132.795,-173.288)">
			<title>Sheet.13</title>
			<rect x="0" y="221.852" width="25.5118" height="22.6772" class="st3"/>
		</g>
		<g id="shape1-7" v:mID="1" v:groupContext="shape" transform="translate(137.806,-19.5088)">
			<title>Sheet.1</title>
			<rect x="0" y="173.663" width="99.2126" height="70.8662" class="st4"/>
		</g>
		<g id="shape2-9" v:mID="2" v:groupContext="shape" transform="translate(208.672,-149.194)">
			<title>Sheet.2</title>
			<rect x="0" y="173.663" width="99.2126" height="70.8662" class="st5"/>
		</g>
		<g id="shape3-11" v:mID="3" v:groupContext="shape" transform="translate(303.633,-111.493)">
			<title>Sheet.3</title>
			<desc>J13</desc>
			<v:textBlock v:margins="rect(4,4,4,4)" v:tabSpace="42.5197"/>
			<v:textRect cx="12.7559" cy="231.774" width="25.52" height="25.5118"/>
			<ellipse cx="12.7559" cy="231.774" rx="12.7559" ry="12.7559" class="st6"/>
			<text x="4.76" y="235.37" class="st7" v:langID="1033"><v:paragraph v:horizAlign="1"/><v:tabList/>J13</text>		</g>
		<g id="shape4-14" v:mID="4" v:groupContext="shape" transform="translate(90.2753,-198.8)">
			<title>Sheet.4</title>
			<desc>XO3</desc>
			<v:textBlock v:margins="rect(4,4,4,4)" v:tabSpace="42.5197"/>
			<v:textRect cx="17.7165" cy="230.356" width="35.44" height="28.3465"/>
			<rect x="0" y="216.183" width="35.4331" height="28.3465" class="st8"/>
			<text x="7.59" y="233.96" class="st7" v:langID="1033"><v:paragraph v:horizAlign="1"/><v:tabList/>XO3</text>		</g>
		<g id="shape5-17" v:mID="5" v:groupContext="shape" transform="translate(90.2753,-142.107)">
			<title>Sheet.5</title>
			<desc>XO4</desc>
			<v:textBlock v:margins="rect(4,4,4,4)" v:tabSpace="42.5197"/>
			<v:textRect cx="17.7165" cy="230.356" width="35.44" height="28.3465"/>
			<rect x="0" y="216.183" width="35.4331" height="28.3465" class="st9"/>
			<text x="7.59" y="233.96" class="st7" v:langID="1033"><v:paragraph v:horizAlign="1"/><v:tabList/>XO4</text>		</g>
		<g id="shape7-20" v:mID="7" v:groupContext="shape" transform="translate(125.708,-191.714)">
			<title>Sheet.7</title>
			<path d="M0 223.27 L14.17 223.27 L14.17 244.53" class="st10"/>
		</g>
		<g id="shape8-23" v:mID="8" v:groupContext="shape" transform="translate(125.708,-156.281)">
			<title>Sheet.8</title>
			<path d="M0 244.53 L14.17 244.53 L14.17 223.27" class="st10"/>
		</g>
		<g id="shape9-26" v:mID="9" v:groupContext="shape" transform="translate(138.252,-189.871)">
			<title>Sheet.9</title>
			<ellipse cx="1.62992" cy="242.9" rx="1.62992" ry="1.62992" class="st11"/>
		</g>
		<g id="shape10-28" v:mID="10" v:groupContext="shape" transform="translate(138.252,-175.91)">
			<title>Sheet.10</title>
			<ellipse cx="1.62992" cy="242.9" rx="1.62992" ry="1.62992" class="st11"/>
		</g>
		<g id="shape11-30" v:mID="11" v:groupContext="shape" transform="translate(152.425,-182.997)">
			<title>Sheet.11</title>
			<ellipse cx="1.62992" cy="242.9" rx="1.62992" ry="1.62992" class="st11"/>
		</g>
		<g id="shape12-32" v:mID="12" v:groupContext="shape" transform="translate(70.649,289.768) rotate(-160.057)">
			<title>Sheet.12</title>
			<path d="M0 244.53 L11.38 244.53" class="st12"/>
		</g>
		<g id="shape14-38" v:mID="14" v:groupContext="shape" transform="translate(66.9401,-40.7687)">
			<title>Sheet.14</title>
			<desc>RC LPF</desc>
			<v:textBlock v:margins="rect(4,4,4,4)" v:tabSpace="42.5197"/>
			<v:textRect cx="21.2598" cy="230.356" width="42.52" height="28.3465"/>
			<rect x="0" y="216.183" width="42.5197" height="28.3465" class="st14"/>
			<text x="14.8" y="226.76" class="st7" v:langID="1033"><v:paragraph v:horizAlign="1"/><v:tabList/>RC<v:lf/><tspan
						x="12.88" dy="1.2em" class="st15">LPF</tspan></text>		</g>
		<g id="shape15-42" v:mID="15" v:groupContext="shape" transform="translate(137.806,434.117) rotate(180)">
			<title>Sheet.15</title>
			<path d="M0 244.53 L21.81 244.53" class="st16"/>
		</g>
		<g id="shape17-48" v:mID="17" v:groupContext="shape" transform="translate(38.5936,-163.367)">
			<title>Sheet.17</title>
			<path d="M0 244.53 L0 194.92 L45.14 194.92" class="st16"/>
		</g>
		<g id="shape18-53" v:mID="18" v:groupContext="shape" transform="translate(38.5936,-76.2017)">
			<title>Sheet.18</title>
			<desc>DC control signal</desc>
			<v:textBlock v:margins="rect(4,4,4,4)" v:tabSpace="42.5197"/>
			<v:textRect cx="31.8898" cy="232.128" width="63.78" height="24.8032"/>
			<rect x="0" y="219.726" width="63.7795" height="24.8032" class="st18"/>
			<text x="4" y="228.53" class="st7" v:langID="1033"><v:paragraph/><v:tabList/>DC control <tspan x="4" dy="1.2em"
						class="st15">signal</tspan></text>		</g>
		<g id="shape20-57" v:mID="20" v:groupContext="shape" transform="translate(197.334,-66.9892)">
			<title>Sheet.20</title>
			<desc>REF IN</desc>
			<v:textBlock v:margins="rect(4,4,4,4)" v:tabSpace="42.5197"/>
			<v:textRect cx="21.2598" cy="232.128" width="42.52" height="24.8032"/>
			<rect x="0" y="219.726" width="42.5197" height="24.8032" class="st18"/>
			<text x="5.57" y="235.73" class="st7" v:langID="1033"><v:paragraph v:horizAlign="1"/><v:tabList/>REF IN</text>		</g>
		<g id="shape22-60" v:mID="22" v:groupContext="shape" transform="translate(205.838,-40.06)">
			<title>Sheet.22</title>
			<desc>IN A</desc>
			<v:textBlock v:margins="rect(4,4,4,4)" v:tabSpace="42.5197"/>
			<v:textRect cx="17.7165" cy="232.128" width="35.44" height="24.8032"/>
			<rect x="0" y="219.726" width="35.4331" height="24.8032" class="st18"/>
			<text x="7.5" y="235.73" class="st7" v:langID="1033"><v:paragraph v:horizAlign="1"/><v:tabList/>IN A</text>		</g>
		<g id="shape23-63" v:mID="23" v:groupContext="shape" transform="translate(205.838,-20.2175)">
			<title>Sheet.23</title>
			<desc>IN B</desc>
			<v:textBlock v:margins="rect(4,4,4,4)" v:tabSpace="42.5197"/>
			<v:textRect cx="17.7165" cy="232.128" width="35.44" height="24.8032"/>
			<rect x="0" y="219.726" width="35.4331" height="24.8032" class="st18"/>
			<text x="7.71" y="235.73" class="st7" v:langID="1033"><v:paragraph v:horizAlign="1"/><v:tabList/>IN B</text>		</g>
		<g id="shape24-66" v:mID="24" v:groupContext="shape" transform="translate(146.31,-37.2254)">
			<title>Sheet.24</title>
			<desc>U18 ADF4002</desc>
			<v:textBlock v:margins="rect(4,4,4,4)" v:tabSpace="42.5197"/>
			<v:textRect cx="35.4331" cy="226.813" width="70.87" height="35.4331"/>
			<rect x="0" y="209.096" width="70.8661" height="35.4331" class="st18"/>
			<text x="25.5" y="223.21" class="st7" v:langID="1033"><v:paragraph v:horizAlign="1"/><v:tabList/>U18<v:lf/><tspan
						x="13.35" dy="1.2em" class="st15">ADF4002</tspan></text>		</g>
		<g id="shape27-70" v:mID="27" v:groupContext="shape" transform="translate(237.019,-33.6821)">
			<title>Sheet.27</title>
			<path d="M0 244.53 L14.17 244.53" class="st10"/>
		</g>
		<g id="group32-73" transform="translate(251.192,-24.6112)" v:mID="32" v:groupContext="group">
			<title>Sheet.32</title>
			<g id="shape28-74" v:mID="28" v:groupContext="shape">
				<title>Sheet.28</title>
				<rect x="0" y="226.388" width="1.13387" height="18.1417" class="st19"/>
			</g>
			<g id="shape29-76" v:mID="29" v:groupContext="shape" transform="translate(2.55116,-3.1181)">
				<title>Sheet.29</title>
				<rect x="0" y="232.624" width="1.13387" height="11.9055" class="st19"/>
			</g>
			<g id="shape30-78" v:mID="30" v:groupContext="shape" transform="translate(5.10235,-6.51968)">
				<title>Sheet.30</title>
				<rect x="0" y="239.427" width="1.13387" height="5.10236" class="st19"/>
			</g>
			<g id="shape31-80" v:mID="31" v:groupContext="shape" transform="translate(7.65354,-8.36219)">
				<title>Sheet.31</title>
				<rect x="0" y="243.112" width="1.13387" height="1.41733" class="st19"/>
			</g>
		</g>
		<g id="shape35-82" v:mID="35" v:groupContext="shape" transform="translate(198.609,-122.619)">
			<title>Sheet.35</title>
			<ellipse cx="1.62992" cy="242.9" rx="1.62992" ry="1.62992" class="st11"/>
		</g>
		<g id="shape37-84" v:mID="37" v:groupContext="shape" transform="translate(313.125,337.157) rotate(-27.5119) scale(1,-1)">
			<title>Sheet.37</title>
			<path d="M0 244.53 L10.96 244.53" class="st12"/>
		</g>
		<g id="shape39-89" v:mID="39" v:groupContext="shape" transform="translate(303.633,364.81) rotate(180)">
			<title>Sheet.39</title>
			<path d="M0 244.53 L89.86 244.53" class="st10"/>
		</g>
		<g id="shape40-92" v:mID="40" v:groupContext="shape" transform="translate(249.562,-122.903)">
			<title>Sheet.40</title>
			<ellipse cx="1.62992" cy="242.9" rx="1.62992" ry="1.62992" class="st19"/>
		</g>
		<g id="shape41-94" v:mID="41" v:groupContext="shape" transform="translate(181.531,-182.997)">
			<title>Sheet.41</title>
			<ellipse cx="1.62992" cy="242.9" rx="1.62992" ry="1.62992" class="st19"/>
		</g>
		<g id="shape42-96" v:mID="42" v:groupContext="shape" transform="translate(221.428,-166.91)">
			<title>Sheet.42</title>
			<desc>U21 NB3H83905C</desc>
			<v:textBlock v:margins="rect(4,4,4,4)" v:tabSpace="42.5197"/>
			<v:textRect cx="38.9764" cy="226.813" width="77.96" height="35.4331"/>
			<rect x="0" y="209.096" width="77.9528" height="35.4331" class="st18"/>
			<text x="29.04" y="223.21" class="st7" v:langID="1033"><v:paragraph v:horizAlign="1"/><v:tabList/>U21<v:lf/><tspan
						x="6.66" dy="1.2em" class="st15">NB3H83905C</tspan></text>		</g>
		<g id="shape44-100" v:mID="44" v:groupContext="shape" transform="translate(272.452,-195.257)">
			<title>Sheet.44</title>
			<desc>OUT3</desc>
			<v:textBlock v:margins="rect(4,4,4,4)" v:tabSpace="42.5197"/>
			<v:textRect cx="19.1845" cy="232.128" width="38.37" height="24.8032"/>
			<rect x="0" y="219.726" width="38.369" height="24.8032" class="st18"/>
			<text x="5.4" y="235.73" class="st7" v:langID="1033"><v:paragraph v:horizAlign="1"/><v:tabList/>OUT3</text>		</g>
		<g id="shape45-103" v:mID="45" v:groupContext="shape" transform="translate(272.452,-149.194)">
			<title>Sheet.45</title>
			<desc>OUT1</desc>
			<v:textBlock v:margins="rect(4,4,4,4)" v:tabSpace="42.5197"/>
			<v:textRect cx="19.1845" cy="232.128" width="38.37" height="24.8032"/>
			<rect x="0" y="219.726" width="38.369" height="24.8032" class="st18"/>
			<text x="5.4" y="235.73" class="st7" v:langID="1033"><v:paragraph v:horizAlign="1"/><v:tabList/>OUT1</text>		</g>
		<g id="shape46-106" v:mID="46" v:groupContext="shape" transform="translate(237.019,-79.7451)">
			<title>Sheet.46</title>
			<path d="M14.17 200.03 L14.17 244.53 L6.54 244.53" class="st16"/>
		</g>
		<g id="shape47-111" v:mID="47" v:groupContext="shape" transform="translate(237.019,-52.8159)">
			<title>Sheet.47</title>
			<path d="M70.87 133.98 L94.49 133.98 L113.39 133.98 L113.39 244.53 L6.54 244.53" class="st16"/>
		</g>
		<g id="shape6-116" v:mID="6" v:groupContext="shape" transform="translate(208.672,304.432) rotate(180)">
			<title>Sheet.6</title>
			<path d="M6.18 244.53 L6.54 244.53 L54.45 244.53" class="st20"/>
		</g>
		<g id="shape49-122" v:mID="49" v:groupContext="shape" transform="translate(49.9322,-156.281)">
			<title>Sheet.49</title>
			<path d="M0 244.53 L33.76 244.53" class="st16"/>
		</g>
		<g id="shape50-127" v:mID="50" v:groupContext="shape" transform="translate(38.5936,-54.8002)">
			<title>Sheet.50</title>
			<path d="M0 157.22 L0 244.53 L28.35 244.53" class="st10"/>
		</g>
		<g id="shape51-130" v:mID="51" v:groupContext="shape" transform="translate(36.9637,-161.737)">
			<title>Sheet.51</title>
			<ellipse cx="1.62992" cy="242.9" rx="1.62992" ry="1.62992" class="st11"/>
		</g>
		<g id="shape52-132" v:mID="52" v:groupContext="shape" transform="translate(48.5149,-154.651)">
			<title>Sheet.52</title>
			<ellipse cx="1.62992" cy="242.9" rx="1.62992" ry="1.62992" class="st11"/>
		</g>
		<g id="shape53-134" v:mID="53" v:groupContext="shape" transform="translate(36.9637,-140.69)">
			<title>Sheet.53</title>
			<ellipse cx="1.62992" cy="242.9" rx="1.62992" ry="1.62992" class="st11"/>
		</g>
		<g id="shape54-136" v:mID="54" v:groupContext="shape" transform="translate(-202.343,60.6599) rotate(-80.1664)">
			<title>Sheet.54</title>
			<path d="M0 244.53 L15.04 244.53" class="st16"/>
		</g>
		<g id="shape56-141" v:mID="56" v:groupContext="shape" transform="translate(-204.802,76.9104) rotate(-90)">
			<title>Sheet.56</title>
			<desc>R105</desc>
			<v:textBlock v:margins="rect(4,4,4,4)" v:tabSpace="42.5197"/>
			<v:textRect cx="17.7165" cy="237.726" width="35.44" height="13.6063"/>
			<rect x="0" y="230.923" width="35.4331" height="13.6063" class="st18"/>
			<text x="5.34" y="241.33" class="st21" v:langID="1033"><v:paragraph v:horizAlign="1"/><v:tabList/>R105</text>		</g>
		<g id="shape58-144" v:mID="58" v:groupContext="shape" transform="translate(136.288,-190.084)">
			<title>Sheet.58</title>
			<desc>R108</desc>
			<v:textBlock v:margins="rect(4,4,4,4)" v:tabSpace="42.5197"/>
			<v:textRect cx="19.1845" cy="229.542" width="38.37" height="29.9757"/>
			<rect x="0" y="214.554" width="38.369" height="29.9757" class="st18"/>
			<text x="6.8" y="233.14" class="st22" v:langID="1033"><v:paragraph v:horizAlign="1"/><v:tabList/>R108</text>		</g>
		<g id="shape59-147" v:mID="59" v:groupContext="shape" transform="translate(193.082,-131.336)">
			<title>Sheet.59</title>
			<desc>R80</desc>
			<v:textBlock v:margins="rect(4,4,4,4)" v:tabSpace="42.5197"/>
			<v:textRect cx="14.1732" cy="235.459" width="28.35" height="18.1417"/>
			<rect x="0" y="226.388" width="28.3465" height="18.1417" class="st18"/>
			<text x="4.83" y="239.06" class="st23" v:langID="1033"><v:paragraph v:horizAlign="1"/><v:tabList/>R80</text>		</g>
		<g id="shape60-150" v:mID="60" v:groupContext="shape" transform="translate(357.491,-173.288)">
			<title>Sheet.60</title>
			<path d="M3.54 173.66 L70.87 173.66 L70.87 244.53 L0 244.53 L0 177.21 L3.54 173.66 Z" class="st24"/>
		</g>
		<g id="shape61-152" v:mID="61" v:groupContext="shape" transform="translate(307.885,-207.304)">
			<title>Sheet.61</title>
			<path d="M0 244.53 L43.29 244.53" class="st16"/>
		</g>
		<g id="shape62-157" v:mID="62" v:groupContext="shape" transform="translate(357.491,-197.383)">
			<title>Sheet.62</title>
			<desc>LMS8001A</desc>
			<v:textBlock v:margins="rect(4,4,4,4)" v:tabSpace="42.5197"/>
			<v:textRect cx="35.4331" cy="234.608" width="70.87" height="19.8425"/>
			<rect x="0" y="224.687" width="70.8661" height="19.8425" class="st18"/>
			<text x="9.39" y="238.21" class="st7" v:langID="1033"><v:paragraph v:horizAlign="1"/><v:tabList/>LMS8001A</text>		</g>
		<g id="shape65-160" v:mID="65" v:groupContext="shape" transform="translate(159.066,-178.143)">
			<title>Sheet.65</title>
			<desc>40 MHz</desc>
			<v:textBlock v:margins="rect(4,4,4,4)" v:tabSpace="42.5197"/>
			<v:textRect cx="23.7655" cy="229.542" width="47.54" height="29.9757"/>
			<rect x="0" y="214.554" width="47.5309" height="29.9757" class="st18"/>
			<text x="5.09" y="233.14" class="st7" v:langID="1033"><v:paragraph v:horizAlign="1"/><v:tabList/>40 MHz</text>		</g>
		<g id="shape66-163" v:mID="66" v:groupContext="shape" transform="translate(258.279,-115.533)">
			<title>Sheet.66</title>
			<desc>10 MHz</desc>
			<v:textBlock v:margins="rect(4,4,4,4)" v:tabSpace="42.5197"/>
			<v:textRect cx="23.7655" cy="229.542" width="47.54" height="29.9757"/>
			<rect x="0" y="214.554" width="47.5309" height="29.9757" class="st18"/>
			<text x="5.09" y="233.14" class="st7" v:langID="1033"><v:paragraph v:horizAlign="1"/><v:tabList/>10 MHz</text>		</g>
		<g id="shape33-166" v:mID="33" v:groupContext="shape" transform="translate(183.161,-124.249)">
			<title>Sheet.33</title>
			<path d="M0 184.15 L0 244.53 L17.01 244.53" class="st10"/>
		</g>
		<g id="shape36-169" v:mID="36" v:groupContext="shape" transform="translate(212.216,-122.619)">
			<title>Sheet.36</title>
			<ellipse cx="1.62992" cy="242.9" rx="1.62992" ry="1.62992" class="st11"/>
		</g>
		<g id="shape67-171" v:mID="67" v:groupContext="shape" transform="translate(309.96,-204.258)">
			<title>Sheet.67</title>
			<desc>REF CLK</desc>
			<v:textBlock v:margins="rect(4,4,4,4)" v:tabSpace="42.5197"/>
			<v:textRect cx="23.7655" cy="229.542" width="47.54" height="29.9757"/>
			<rect x="0" y="214.554" width="47.5309" height="29.9757" class="st18"/>
			<text x="4.63" y="233.14" class="st7" v:langID="1033"><v:paragraph v:horizAlign="1"/><v:tabList/>REF CLK</text>		</g>
		<g id="shape68-174" v:mID="68" v:groupContext="shape" transform="translate(129.302,-42.5403)">
			<title>Sheet.68</title>
			<desc>CP</desc>
			<v:textBlock v:margins="rect(4,4,4,4)" v:tabSpace="42.5197"/>
			<v:textRect cx="17.7165" cy="232.128" width="35.44" height="24.8032"/>
			<rect x="0" y="219.726" width="35.4331" height="24.8032" class="st18"/>
			<text x="11.42" y="235.73" class="st7" v:langID="1033"><v:paragraph v:horizAlign="1"/><v:tabList/>CP</text>		</g>
		<g id="shape69-177" v:mID="69" v:groupContext="shape" transform="translate(200.168,-172.225)">
			<title>Sheet.69</title>
			<desc>IN</desc>
			<v:textBlock v:margins="rect(4,4,4,4)" v:tabSpace="42.5197"/>
			<v:textRect cx="19.1845" cy="232.128" width="38.37" height="24.8032"/>
			<rect x="0" y="219.726" width="38.369" height="24.8032" class="st18"/>
			<text x="13.8" y="235.73" class="st7" v:langID="1033"><v:paragraph v:horizAlign="1"/><v:tabList/>IN</text>		</g>
		<g id="shape70-180" v:mID="70" v:groupContext="shape" transform="translate(135.68,-15.2568)">
			<title>Sheet.70</title>
			<desc>MUXOUT</desc>
			<v:textBlock v:margins="rect(4,4,4,4)" v:tabSpace="42.5197"/>
			<v:textRect cx="27.9921" cy="232.128" width="55.99" height="24.8032"/>
			<rect x="0" y="219.726" width="55.9843" height="24.8032" class="st18"/>
			<text x="5.15" y="235.73" class="st7" v:langID="1033"><v:paragraph v:horizAlign="1"/><v:tabList/>MUXOUT</text>		</g>
		<g id="group71-183" transform="translate(102.657,-0.375)" v:mID="71" v:groupContext="group">
			<title>Sheet.71</title>
			<g id="group72-184" transform="translate(-227.522,244.53) rotate(-90)" v:mID="72" v:groupContext="group">
				<title>Sheet.72</title>
				<g id="shape73-185" v:mID="73" v:groupContext="shape" transform="translate(9.44882,-1.97274E-05)">
					<title>Sheet.73</title>
					<path d="M0 239.81 L9.45 235.08 L9.45 244.53 L0 239.81 Z" class="st25"/>
				</g>
				<g id="shape74-187" v:mID="74" v:groupContext="shape" transform="translate(253.978,235.081) rotate(90)">
					<title>Sheet.74</title>
					<path d="M0 244.53 L9.45 244.53" class="st10"/>
				</g>
				<g id="shape75-190" v:mID="75" v:groupContext="shape" transform="translate(9.44882,484.335) rotate(180)">
					<title>Sheet.75</title>
					<path d="M0 244.53 L9.45 244.53" class="st10"/>
				</g>
				<g id="shape76-193" v:mID="76" v:groupContext="shape" transform="translate(18.8976,-4.72441)">
					<title>Sheet.76</title>
					<path d="M0 244.53 L9.45 244.53" class="st10"/>
				</g>
				<g id="shape77-196" v:mID="77" v:groupContext="shape" transform="translate(-161.57,407.044) rotate(-135)">
					<title>Sheet.77</title>
					<path d="M0 244.53 L2.3 244.53" class="st12"/>
				</g>
				<g id="shape78-201" v:mID="78" v:groupContext="shape" transform="translate(-156.845,405.155) rotate(-135)">
					<title>Sheet.78</title>
					<path d="M0 244.53 L2.3 244.53" class="st12"/>
				</g>
			</g>
			<g id="shape79-206" v:mID="79" v:groupContext="shape" transform="translate(-29.0551,-10.7717)">
				<title>Sheet.79</title>
				<desc>LD6</desc>
				<v:textBlock v:margins="rect(4,4,4,4)" v:tabSpace="42.5197"/>
				<v:textRect cx="17.7165" cy="238.577" width="35.44" height="11.9055"/>
				<rect x="0" y="232.624" width="35.4331" height="11.9055" class="st18"/>
				<text x="8.46" y="242.18" class="st7" v:langID="1033"><v:paragraph v:horizAlign="1"/><v:tabList/>LD6</text>			</g>
		</g>
		<g id="shape82-209" v:mID="82" v:groupContext="shape" transform="translate(137.806,460.338) rotate(180)">
			<title>Sheet.82</title>
			<path d="M0 244.53 L22.68 244.53" class="st10"/>
		</g>
		<g id="shape84-212" v:mID="84" v:groupContext="shape" transform="translate(27.255,-156.281) scale(-1,1)">
			<title>Sheet.84</title>
			<path d="M0 244.53 L14.17 244.53" class="st10"/>
		</g>
		<g id="group85-215" transform="translate(-222.377,110.643) rotate(-90) scale(-1,1)" v:mID="85" v:groupContext="group">
			<title>Sheet.85</title>
			<g id="shape86-216" v:mID="86" v:groupContext="shape">
				<title>Sheet.86</title>
				<rect x="0" y="226.388" width="1.13387" height="18.1417" class="st19"/>
			</g>
			<g id="shape87-218" v:mID="87" v:groupContext="shape" transform="translate(2.55116,-3.1181)">
				<title>Sheet.87</title>
				<rect x="0" y="232.624" width="1.13387" height="11.9055" class="st19"/>
			</g>
			<g id="shape88-220" v:mID="88" v:groupContext="shape" transform="translate(5.10235,-6.51968)">
				<title>Sheet.88</title>
				<rect x="0" y="239.427" width="1.13387" height="5.10236" class="st19"/>
			</g>
			<g id="shape89-222" v:mID="89" v:groupContext="shape" transform="translate(7.65354,-8.36219)">
				<title>Sheet.89</title>
				<rect x="0" y="243.112" width="1.13387" height="1.41733" class="st19"/>
			</g>
		</g>
		<g id="shape83-224" v:mID="83" v:groupContext="shape" transform="translate(25.8377,-154.651)">
			<title>Sheet.83</title>
			<ellipse cx="1.62992" cy="242.9" rx="1.62992" ry="1.62992" class="st11"/>
		</g>
		<g id="shape90-226" v:mID="90" v:groupContext="shape" transform="translate(136.288,-149.194)">
			<title>Sheet.90</title>
			<desc>R110</desc>
			<v:textBlock v:margins="rect(4,4,4,4)" v:tabSpace="42.5197"/>
			<v:textRect cx="19.1845" cy="229.542" width="38.37" height="29.9757"/>
			<rect x="0" y="214.554" width="38.369" height="29.9757" class="st18"/>
			<text x="6.8" y="233.14" class="st22" v:langID="1033"><v:paragraph v:horizAlign="1"/><v:tabList/>R110</text>		</g>
		<g id="shape91-229" v:mID="91" v:groupContext="shape" transform="translate(52.7668,-142.107)">
			<title>Sheet.91</title>
			<desc>R107</desc>
			<v:textBlock v:margins="rect(4,4,4,4)" v:tabSpace="42.5197"/>
			<v:textRect cx="17.7165" cy="224.155" width="35.44" height="40.748"/>
			<rect x="0" y="203.781" width="35.4331" height="40.748" class="st18"/>
			<text x="5.34" y="227.76" class="st21" v:langID="1033"><v:paragraph v:horizAlign="1"/><v:tabList/>R107</text>		</g>
		<g id="shape169-232" v:mID="169" v:groupContext="shape" transform="translate(-232.582,105.966) rotate(-90)">
			<title>Sheet.169</title>
			<desc>R104</desc>
			<v:textBlock v:margins="rect(4,4,4,4)" v:tabSpace="42.5197"/>
			<v:textRect cx="17.7165" cy="239.781" width="35.44" height="9.49606"/>
			<rect x="0" y="235.033" width="35.4331" height="9.49606" class="st18"/>
			<text x="5.34" y="243.38" class="st21" v:langID="1033"><v:paragraph v:horizAlign="1"/><v:tabList/>R104</text>		</g>
		<g id="shape170-235" v:mID="170" v:groupContext="shape" transform="translate(257.611,88.249) rotate(90)">
			<title>Sheet.170</title>
			<path d="M0 244.53 L22.87 244.53" class="st10"/>
		</g>
	</g>
</svg>
