<?xml version="1.0" encoding="UTF-8" standalone="no"?>
<!DOCTYPE svg PUBLIC "-//W3C//DTD SVG 1.1//EN" "http://www.w3.org/Graphics/SVG/1.1/DTD/svg11.dtd">
<!-- Generated by Microsoft Visio, SVG Export RF_BlockDiagram.svg Page-1 -->
<svg xmlns="http://www.w3.org/2000/svg" xmlns:xlink="http://www.w3.org/1999/xlink" xmlns:ev="http://www.w3.org/2001/xml-events"
		xmlns:v="http://schemas.microsoft.com/visio/2003/SVGExtensions/" width="4.34113in" height="4.34113in"
		viewBox="0 0 312.561 312.561" xml:space="preserve" color-interpolation-filters="sRGB" class="st19">
	<v:documentProperties v:langID="1033" v:viewMarkup="false"/>

	<style type="text/css">
	<![CDATA[
		.st1 {fill:#f7fef5;stroke:#000000;stroke-dasharray:5.25,3.75;stroke-linecap:round;stroke-linejoin:round;stroke-width:0.75}
		.st2 {fill:#dcfcd8;stroke:#000000;stroke-linecap:round;stroke-linejoin:round;stroke-width:0.75}
		.st3 {stroke:#000000;stroke-linecap:round;stroke-linejoin:round;stroke-width:0.75}
		.st4 {fill:none;stroke:none;stroke-linecap:round;stroke-linejoin:round;stroke-width:0.75}
		.st5 {fill:#000000;font-family:Calibri;font-size:0.499992em}
		.st6 {font-size:1em}
		.st7 {fill:#dbeef3;stroke:#000000;stroke-linecap:round;stroke-linejoin:round;stroke-width:0.75}
		.st8 {fill:#ddd6e5;stroke:#000000;stroke-linecap:round;stroke-linejoin:round;stroke-width:0.75}
		.st9 {fill:#fff2cc;stroke:#000000;stroke-linecap:round;stroke-linejoin:round;stroke-width:0.75}
		.st10 {fill:#e5b9b5;stroke:#000000;stroke-linecap:round;stroke-linejoin:round;stroke-width:0.75}
		.st11 {stroke:#000000;stroke-dasharray:5.25,3.75;stroke-linecap:round;stroke-linejoin:round;stroke-width:0.75}
		.st12 {fill:#000000;font-family:Calibri;font-size:1.00001em}
		.st13 {fill:#bfbfbf;stroke:#000000;stroke-linecap:round;stroke-linejoin:round;stroke-width:0.75}
		.st14 {fill:#e9ffa6;stroke:#000000;stroke-linecap:round;stroke-linejoin:round;stroke-width:0.75}
		.st15 {fill:#f9c499;stroke:#000000;stroke-linecap:round;stroke-linejoin:round;stroke-width:0.75}
		.st16 {fill:#fee599;stroke:#000000;stroke-linecap:round;stroke-linejoin:round;stroke-width:0.75}
		.st17 {fill:#f2dcda;stroke:#000000;stroke-linecap:round;stroke-linejoin:round;stroke-width:0.75}
		.st18 {fill:#000000;font-family:Calibri;font-size:0.833336em}
		.st19 {fill:none;fill-rule:evenodd;font-size:12px;overflow:visible;stroke-linecap:square;stroke-miterlimit:3}
	]]>
	</style>

	<g v:mID="0" v:index="1" v:groupContext="foregroundPage">
		<title>Page-1</title>
		<v:pageProperties v:drawingScale="0.0393701" v:pageScale="0.0393701" v:drawingUnits="24" v:shadowOffsetX="8.50394"
				v:shadowOffsetY="-8.50394"/>
		<g id="shape151-1" v:mID="151" v:groupContext="shape" transform="translate(202.344,-195.966)">
			<title>Sheet.151</title>
			<path d="M0 312.56 L95.47 312.56 L95.47 200.59 L0 200.59 L0 312.56 Z" class="st1"/>
		</g>
		<g id="shape3-3" v:mID="3" v:groupContext="shape" transform="translate(120.847,-120.847)">
			<title>Sheet.3</title>
			<path d="M3.54 241.69 L70.87 241.69 L70.87 312.56 L0 312.56 L0 245.24 L3.54 241.69 Z" class="st2"/>
		</g>
		<g id="group6-5" transform="translate(98.1703,-163.367)" v:mID="6" v:groupContext="group">
			<title>Sheet.6</title>
			<g id="shape4-6" v:mID="4" v:groupContext="shape" transform="translate(22.6772,610.949) rotate(180)">
				<title>Sheet.4</title>
				<path d="M0 312.56 L22.68 312.56" class="st3"/>
			</g>
			<g id="shape5-9" v:mID="5" v:groupContext="shape" transform="translate(22.6772,625.122) rotate(180)">
				<title>Sheet.5</title>
				<path d="M0 312.56 L22.68 312.56" class="st3"/>
			</g>
		</g>
		<g id="group7-12" transform="translate(191.714,-163.367)" v:mID="7" v:groupContext="group">
			<title>Sheet.7</title>
			<g id="shape8-13" v:mID="8" v:groupContext="shape" transform="translate(22.6772,610.949) rotate(180)">
				<title>Sheet.8</title>
				<path d="M0 312.56 L22.68 312.56" class="st3"/>
			</g>
			<g id="shape9-16" v:mID="9" v:groupContext="shape" transform="translate(22.6772,625.122) rotate(180)">
				<title>Sheet.9</title>
				<path d="M0 312.56 L22.68 312.56" class="st3"/>
			</g>
		</g>
		<g id="group10-19" transform="translate(191.714,-135.021)" v:mID="10" v:groupContext="group">
			<title>Sheet.10</title>
			<g id="shape11-20" v:mID="11" v:groupContext="shape" transform="translate(22.6772,610.949) rotate(180)">
				<title>Sheet.11</title>
				<path d="M0 312.56 L22.68 312.56" class="st3"/>
			</g>
			<g id="shape12-23" v:mID="12" v:groupContext="shape" transform="translate(22.6772,625.122) rotate(180)">
				<title>Sheet.12</title>
				<path d="M0 312.56 L22.68 312.56" class="st3"/>
			</g>
		</g>
		<g id="group13-26" transform="translate(98.1703,-135.021)" v:mID="13" v:groupContext="group">
			<title>Sheet.13</title>
			<g id="shape14-27" v:mID="14" v:groupContext="shape" transform="translate(22.6772,610.949) rotate(180)">
				<title>Sheet.14</title>
				<path d="M0 312.56 L22.68 312.56" class="st3"/>
			</g>
			<g id="shape15-30" v:mID="15" v:groupContext="shape" transform="translate(22.6772,625.122) rotate(180)">
				<title>Sheet.15</title>
				<path d="M0 312.56 L22.68 312.56" class="st3"/>
			</g>
		</g>
		<g id="group16-33" transform="translate(-163.367,214.391) rotate(-90)" v:mID="16" v:groupContext="group">
			<title>Sheet.16</title>
			<g id="shape17-34" v:mID="17" v:groupContext="shape" transform="translate(22.6772,610.949) rotate(180)">
				<title>Sheet.17</title>
				<path d="M0 312.56 L22.68 312.56" class="st3"/>
			</g>
			<g id="shape18-37" v:mID="18" v:groupContext="shape" transform="translate(22.6772,625.122) rotate(180)">
				<title>Sheet.18</title>
				<path d="M0 312.56 L22.68 312.56" class="st3"/>
			</g>
		</g>
		<g id="group19-40" transform="translate(-135.021,214.391) rotate(-90)" v:mID="19" v:groupContext="group">
			<title>Sheet.19</title>
			<g id="shape20-41" v:mID="20" v:groupContext="shape" transform="translate(22.6772,610.949) rotate(180)">
				<title>Sheet.20</title>
				<path d="M0 312.56 L22.68 312.56" class="st3"/>
			</g>
			<g id="shape21-44" v:mID="21" v:groupContext="shape" transform="translate(22.6772,625.122) rotate(180)">
				<title>Sheet.21</title>
				<path d="M0 312.56 L22.68 312.56" class="st3"/>
			</g>
		</g>
		<g id="group22-47" transform="translate(-135.021,120.847) rotate(-90)" v:mID="22" v:groupContext="group">
			<title>Sheet.22</title>
			<g id="shape23-48" v:mID="23" v:groupContext="shape" transform="translate(22.6772,610.949) rotate(180)">
				<title>Sheet.23</title>
				<path d="M0 312.56 L22.68 312.56" class="st3"/>
			</g>
			<g id="shape24-51" v:mID="24" v:groupContext="shape" transform="translate(22.6772,625.122) rotate(180)">
				<title>Sheet.24</title>
				<path d="M0 312.56 L22.68 312.56" class="st3"/>
			</g>
		</g>
		<g id="group25-54" transform="translate(-163.367,120.847) rotate(-90)" v:mID="25" v:groupContext="group">
			<title>Sheet.25</title>
			<g id="shape26-55" v:mID="26" v:groupContext="shape" transform="translate(22.6772,610.949) rotate(180)">
				<title>Sheet.26</title>
				<path d="M0 312.56 L22.68 312.56" class="st3"/>
			</g>
			<g id="shape27-58" v:mID="27" v:groupContext="shape" transform="translate(22.6772,625.122) rotate(180)">
				<title>Sheet.27</title>
				<path d="M0 312.56 L22.68 312.56" class="st3"/>
			</g>
		</g>
		<g id="shape28-61" v:mID="28" v:groupContext="shape" transform="translate(98.1703,-161.95)">
			<title>Sheet.28</title>
			<desc>Diff IN</desc>
			<v:textBlock v:margins="rect(4,4,4,4)" v:tabSpace="42.5197"/>
			<v:textRect cx="11.3386" cy="304.057" width="22.68" height="17.0079"/>
			<rect x="0" y="295.553" width="22.6772" height="17.0079" class="st4"/>
			<text x="6.97" y="302.26" class="st5" v:langID="1033"><v:paragraph v:horizAlign="1"/><v:tabList/>Diff <tspan x="8.65"
						dy="1.2em" class="st6">IN</tspan></text>		</g>
		<g id="shape30-65" v:mID="30" v:groupContext="shape" transform="translate(98.1703,-133.603)">
			<title>Sheet.30</title>
			<desc>Diff IN</desc>
			<v:textBlock v:margins="rect(4,4,4,4)" v:tabSpace="42.5197"/>
			<v:textRect cx="11.3386" cy="304.057" width="22.68" height="17.0079"/>
			<rect x="0" y="295.553" width="22.6772" height="17.0079" class="st4"/>
			<text x="6.97" y="302.26" class="st5" v:langID="1033"><v:paragraph v:horizAlign="1"/><v:tabList/>Diff <tspan x="8.65"
						dy="1.2em" class="st6">IN</tspan></text>		</g>
		<g id="shape31-69" v:mID="31" v:groupContext="shape" transform="translate(191.714,-161.95)">
			<title>Sheet.31</title>
			<desc>Diff IN</desc>
			<v:textBlock v:margins="rect(4,4,4,4)" v:tabSpace="42.5197"/>
			<v:textRect cx="11.3386" cy="304.057" width="22.68" height="17.0079"/>
			<rect x="0" y="295.553" width="22.6772" height="17.0079" class="st4"/>
			<text x="6.97" y="302.26" class="st5" v:langID="1033"><v:paragraph v:horizAlign="1"/><v:tabList/>Diff <tspan x="8.65"
						dy="1.2em" class="st6">IN</tspan></text>		</g>
		<g id="shape32-73" v:mID="32" v:groupContext="shape" transform="translate(191.714,-133.603)">
			<title>Sheet.32</title>
			<desc>Diff IN</desc>
			<v:textBlock v:margins="rect(4,4,4,4)" v:tabSpace="42.5197"/>
			<v:textRect cx="11.3386" cy="304.057" width="22.68" height="17.0079"/>
			<rect x="0" y="295.553" width="22.6772" height="17.0079" class="st4"/>
			<text x="6.97" y="302.26" class="st5" v:langID="1033"><v:paragraph v:horizAlign="1"/><v:tabList/>Diff <tspan x="8.65"
						dy="1.2em" class="st6">IN</tspan></text>		</g>
		<g id="shape33-77" v:mID="33" v:groupContext="shape" transform="translate(130.769,-191.714)">
			<title>Sheet.33</title>
			<desc>Diff OUT</desc>
			<v:textBlock v:margins="rect(4,4,4,4)" v:tabSpace="42.5197"/>
			<v:textRect cx="11.3386" cy="304.057" width="22.68" height="17.0079"/>
			<rect x="0" y="295.553" width="22.6772" height="17.0079" class="st4"/>
			<text x="6.97" y="302.26" class="st5" v:langID="1033"><v:paragraph v:horizAlign="1"/><v:tabList/>Diff <tspan x="5.97"
						dy="1.2em" class="st6">OUT</tspan></text>		</g>
		<g id="shape34-81" v:mID="34" v:groupContext="shape" transform="translate(159.115,-191.714)">
			<title>Sheet.34</title>
			<desc>Diff OUT</desc>
			<v:textBlock v:margins="rect(4,4,4,4)" v:tabSpace="42.5197"/>
			<v:textRect cx="11.3386" cy="304.057" width="22.68" height="17.0079"/>
			<rect x="0" y="295.553" width="22.6772" height="17.0079" class="st4"/>
			<text x="6.97" y="302.26" class="st5" v:langID="1033"><v:paragraph v:horizAlign="1"/><v:tabList/>Diff <tspan x="5.97"
						dy="1.2em" class="st6">OUT</tspan></text>		</g>
		<g id="shape35-85" v:mID="35" v:groupContext="shape" transform="translate(130.769,-103.84)">
			<title>Sheet.35</title>
			<desc>Diff OUT</desc>
			<v:textBlock v:margins="rect(4,4,4,4)" v:tabSpace="42.5197"/>
			<v:textRect cx="11.3386" cy="304.057" width="22.68" height="17.0079"/>
			<rect x="0" y="295.553" width="22.6772" height="17.0079" class="st4"/>
			<text x="6.97" y="302.26" class="st5" v:langID="1033"><v:paragraph v:horizAlign="1"/><v:tabList/>Diff <tspan x="5.97"
						dy="1.2em" class="st6">OUT</tspan></text>		</g>
		<g id="shape36-89" v:mID="36" v:groupContext="shape" transform="translate(159.115,-103.84)">
			<title>Sheet.36</title>
			<desc>Diff OUT</desc>
			<v:textBlock v:margins="rect(4,4,4,4)" v:tabSpace="42.5197"/>
			<v:textRect cx="11.3386" cy="304.057" width="22.68" height="17.0079"/>
			<rect x="0" y="295.553" width="22.6772" height="17.0079" class="st4"/>
			<text x="6.97" y="302.26" class="st5" v:langID="1033"><v:paragraph v:horizAlign="1"/><v:tabList/>Diff <tspan x="5.97"
						dy="1.2em" class="st6">OUT</tspan></text>		</g>
		<g id="shape37-93" v:mID="37" v:groupContext="shape" transform="translate(65.5719,-157.698)">
			<title>Sheet.37</title>
			<desc>Input Matching Network</desc>
			<v:textBlock v:margins="rect(4,4,4,4)" v:tabSpace="42.5197"/>
			<v:textRect cx="17.0079" cy="299.805" width="34.02" height="25.5118"/>
			<rect x="0" y="287.049" width="34.0157" height="25.5118" class="st7"/>
			<text x="10.52" y="294.41" class="st5" v:langID="1033"><v:paragraph v:horizAlign="1"/><v:tabList/>Input <tspan x="5.48"
						dy="1.2em" class="st6">Matching </tspan><tspan x="6.44" dy="1.2em" class="st6">Network</tspan></text>		</g>
		<g id="shape38-98" v:mID="38" v:groupContext="shape" transform="translate(65.5719,-129.351)">
			<title>Sheet.38</title>
			<desc>Input Matching Network</desc>
			<v:textBlock v:margins="rect(4,4,4,4)" v:tabSpace="42.5197"/>
			<v:textRect cx="17.0079" cy="299.805" width="34.02" height="25.5118"/>
			<rect x="0" y="287.049" width="34.0157" height="25.5118" class="st8"/>
			<text x="10.52" y="294.41" class="st5" v:langID="1033"><v:paragraph v:horizAlign="1"/><v:tabList/>Input<v:lf/><tspan
						x="5.48" dy="1.2em" class="st6">Matching </tspan><tspan x="6.44" dy="1.2em" class="st6">Network</tspan></text>		</g>
		<g id="shape39-103" v:mID="39" v:groupContext="shape" transform="translate(212.973,-157.698)">
			<title>Sheet.39</title>
			<desc>Input Matching Network</desc>
			<v:textBlock v:margins="rect(4,4,4,4)" v:tabSpace="42.5197"/>
			<v:textRect cx="17.0079" cy="299.805" width="34.02" height="25.5118"/>
			<rect x="0" y="287.049" width="34.0157" height="25.5118" class="st9"/>
			<text x="10.52" y="294.41" class="st5" v:langID="1033"><v:paragraph v:horizAlign="1"/><v:tabList/>Input<v:lf/><tspan
						x="5.48" dy="1.2em" class="st6">Matching </tspan><tspan x="6.44" dy="1.2em" class="st6">Network</tspan></text>		</g>
		<g id="shape40-108" v:mID="40" v:groupContext="shape" transform="translate(212.973,-129.351)">
			<title>Sheet.40</title>
			<desc>Input Matching Network</desc>
			<v:textBlock v:margins="rect(4,4,4,4)" v:tabSpace="42.5197"/>
			<v:textRect cx="17.0079" cy="299.805" width="34.02" height="25.5118"/>
			<rect x="0" y="287.049" width="34.0157" height="25.5118" class="st10"/>
			<text x="10.52" y="294.41" class="st5" v:langID="1033"><v:paragraph v:horizAlign="1"/><v:tabList/>Input<v:lf/><tspan
						x="5.48" dy="1.2em" class="st6">Matching </tspan><tspan x="6.44" dy="1.2em" class="st6">Network</tspan></text>		</g>
		<g id="shape41-113" v:mID="41" v:groupContext="shape" transform="translate(470.259,212.973) rotate(90)">
			<title>Sheet.41</title>
			<desc>Output Matching Network</desc>
			<v:textBlock v:margins="rect(4,4,4,4)" v:tabSpace="42.5197"/>
			<v:textRect cx="17.0079" cy="299.805" width="34.02" height="25.5118" transform="rotate(-90)"/>
			<rect x="0" y="287.049" width="34.0157" height="25.5118" class="st10"/>
			<text x="-308.53" y="11.61" transform="rotate(-90)" class="st5" v:langID="1033"><v:paragraph v:horizAlign="1"/><v:tabList/>Output<v:lf/><tspan
						x="-311.33" dy="1.2em" class="st6">Matching </tspan><tspan x="-310.38" dy="1.2em" class="st6">Network</tspan></text>		</g>
		<g id="shape42-118" v:mID="42" v:groupContext="shape" transform="translate(441.912,212.973) rotate(90)">
			<title>Sheet.42</title>
			<desc>Output Matching Network</desc>
			<v:textBlock v:margins="rect(4,4,4,4)" v:tabSpace="42.5197"/>
			<v:textRect cx="17.0079" cy="299.805" width="34.02" height="25.5118" transform="rotate(-90)"/>
			<rect x="0" y="287.049" width="34.0157" height="25.5118" class="st8"/>
			<text x="-308.53" y="11.61" transform="rotate(-90)" class="st5" v:langID="1033"><v:paragraph v:horizAlign="1"/><v:tabList/>Output<v:lf/><tspan
						x="-311.33" dy="1.2em" class="st6">Matching </tspan><tspan x="-310.38" dy="1.2em" class="st6">Network</tspan></text>		</g>
		<g id="shape43-123" v:mID="43" v:groupContext="shape" transform="translate(470.259,65.5718) rotate(90)">
			<title>Sheet.43</title>
			<desc>Output Matching Network</desc>
			<v:textBlock v:margins="rect(4,4,4,4)" v:tabSpace="42.5197"/>
			<v:textRect cx="17.0079" cy="299.805" width="34.02" height="25.5118" transform="rotate(-90)"/>
			<rect x="0" y="287.049" width="34.0157" height="25.5118" class="st9"/>
			<text x="-308.53" y="11.61" transform="rotate(-90)" class="st5" v:langID="1033"><v:paragraph v:horizAlign="1"/><v:tabList/>Output<v:lf/><tspan
						x="-311.33" dy="1.2em" class="st6">Matching </tspan><tspan x="-310.38" dy="1.2em" class="st6">Network</tspan></text>		</g>
		<g id="shape44-128" v:mID="44" v:groupContext="shape" transform="translate(441.912,65.5718) rotate(90)">
			<title>Sheet.44</title>
			<desc>Output Matching Network</desc>
			<v:textBlock v:margins="rect(4,4,4,4)" v:tabSpace="42.5197"/>
			<v:textRect cx="17.0079" cy="299.805" width="34.02" height="25.5118" transform="rotate(-90)"/>
			<rect x="0" y="287.049" width="34.0157" height="25.5118" class="st7"/>
			<text x="-308.53" y="11.61" transform="rotate(-90)" class="st5" v:langID="1033"><v:paragraph v:horizAlign="1"/><v:tabList/>Output<v:lf/><tspan
						x="-311.33" dy="1.2em" class="st6">Matching </tspan><tspan x="-310.38" dy="1.2em" class="st6">Network</tspan></text>		</g>
		<g id="shape46-133" v:mID="46" v:groupContext="shape" transform="translate(120.847,-156.281)">
			<title>Sheet.46</title>
			<path d="M0 312.56 L70.87 312.56" class="st11"/>
		</g>
		<g id="shape47-136" v:mID="47" v:groupContext="shape" transform="translate(-156.281,191.714) rotate(-90)">
			<title>Sheet.47</title>
			<path d="M0 312.56 L70.87 312.56" class="st11"/>
		</g>
		<g id="shape48-139" v:mID="48" v:groupContext="shape" transform="translate(120.847,-156.507)">
			<title>Sheet.48</title>
			<desc>CHA</desc>
			<v:textBlock v:margins="rect(4,4,4,4)" v:tabSpace="42.5197"/>
			<v:textRect cx="17.7165" cy="294.958" width="35.44" height="35.2063"/>
			<rect x="0" y="277.355" width="35.4331" height="35.2063" class="st4"/>
			<text x="7.31" y="298.56" class="st12" v:langID="1033"><v:paragraph v:horizAlign="1"/><v:tabList/>CHA</text>		</g>
		<g id="shape52-142" v:mID="52" v:groupContext="shape" transform="translate(156.281,-156.281)">
			<title>Sheet.52</title>
			<desc>CHD</desc>
			<v:textBlock v:margins="rect(4,4,4,4)" v:tabSpace="42.5197"/>
			<v:textRect cx="17.7165" cy="294.958" width="35.44" height="35.2063"/>
			<rect x="0" y="277.355" width="35.4331" height="35.2063" class="st4"/>
			<text x="7.09" y="298.56" class="st12" v:langID="1033"><v:paragraph v:horizAlign="1"/><v:tabList/>CHD</text>		</g>
		<g id="shape53-145" v:mID="53" v:groupContext="shape" transform="translate(120.847,-121.301)">
			<title>Sheet.53</title>
			<desc>CHB</desc>
			<v:textBlock v:margins="rect(4,4,4,4)" v:tabSpace="42.5197"/>
			<v:textRect cx="17.7165" cy="294.958" width="35.44" height="35.2063"/>
			<rect x="0" y="277.355" width="35.4331" height="35.2063" class="st4"/>
			<text x="7.52" y="298.56" class="st12" v:langID="1033"><v:paragraph v:horizAlign="1"/><v:tabList/>CHB</text>		</g>
		<g id="shape54-148" v:mID="54" v:groupContext="shape" transform="translate(156.281,-120.847)">
			<title>Sheet.54</title>
			<desc>CHC</desc>
			<v:textBlock v:margins="rect(4,4,4,4)" v:tabSpace="42.5197"/>
			<v:textRect cx="17.7165" cy="294.958" width="35.44" height="35.2063"/>
			<rect x="0" y="277.355" width="35.4331" height="35.2063" class="st4"/>
			<text x="7.58" y="298.56" class="st12" v:langID="1033"><v:paragraph v:horizAlign="1"/><v:tabList/>CHC</text>		</g>
		<g id="shape56-151" v:mID="56" v:groupContext="shape" transform="translate(35.8081,-157.698)">
			<title>Sheet.56</title>
			<desc>T5 Balun</desc>
			<v:textBlock v:margins="rect(4,4,4,4)" v:tabSpace="42.5197"/>
			<v:textRect cx="11.3386" cy="299.805" width="22.68" height="25.5118"/>
			<rect x="0" y="287.049" width="22.6772" height="25.5118" class="st13"/>
			<text x="8.36" y="298.01" class="st5" v:langID="1033"><v:paragraph v:horizAlign="1"/><v:tabList/>T5<v:lf/><tspan
						x="4.43" dy="1.2em" class="st6">Balun</tspan></text>		</g>
		<g id="shape57-155" v:mID="57" v:groupContext="shape" transform="translate(-157.698,58.4852) rotate(-90)">
			<title>Sheet.57</title>
			<desc>T6 Balun</desc>
			<v:textBlock v:margins="rect(4,4,4,4)" v:tabSpace="42.5197"/>
			<v:textRect cx="11.3386" cy="299.805" width="22.68" height="25.5118" transform="rotate(90)"/>
			<rect x="0" y="287.049" width="22.6772" height="25.5118" class="st14"/>
			<text x="296.82" y="-13.14" transform="rotate(90)" class="st5" v:langID="1033"><v:paragraph v:horizAlign="1"/><v:tabList/>T6<v:lf/><tspan
						x="292.9" dy="1.2em" class="st6">Balun</tspan></text>		</g>
		<g id="shape58-159" v:mID="58" v:groupContext="shape" transform="translate(-129.351,58.4852) rotate(-90)">
			<title>Sheet.58</title>
			<desc>T11 Balun</desc>
			<v:textBlock v:margins="rect(4,4,4,4)" v:tabSpace="42.5197"/>
			<v:textRect cx="11.3386" cy="299.805" width="22.68" height="25.5118" transform="rotate(90)"/>
			<rect x="0" y="287.049" width="22.6772" height="25.5118" class="st13"/>
			<text x="295.3" y="-13.14" transform="rotate(90)" class="st5" v:langID="1033"><v:paragraph v:horizAlign="1"/><v:tabList/>T11<v:lf/><tspan
						x="292.9" dy="1.2em" class="st6">Balun</tspan></text>		</g>
		<g id="shape59-163" v:mID="59" v:groupContext="shape" transform="translate(35.8081,-129.351)">
			<title>Sheet.59</title>
			<desc>T9 Balun</desc>
			<v:textBlock v:margins="rect(4,4,4,4)" v:tabSpace="42.5197"/>
			<v:textRect cx="11.3386" cy="299.805" width="22.68" height="25.5118"/>
			<rect x="0" y="287.049" width="22.6772" height="25.5118" class="st13"/>
			<text x="8.36" y="298.01" class="st5" v:langID="1033"><v:paragraph v:horizAlign="1"/><v:tabList/>T9<v:lf/><tspan
						x="4.43" dy="1.2em" class="st6">Balun</tspan></text>		</g>
		<g id="shape60-167" v:mID="60" v:groupContext="shape" transform="translate(254.076,-157.698)">
			<title>Sheet.60</title>
			<desc>T3 Balun</desc>
			<v:textBlock v:margins="rect(4,4,4,4)" v:tabSpace="42.5197"/>
			<v:textRect cx="11.3386" cy="299.805" width="22.68" height="25.5118"/>
			<rect x="0" y="287.049" width="22.6772" height="25.5118" class="st14"/>
			<text x="8.36" y="298.01" class="st5" v:langID="1033"><v:paragraph v:horizAlign="1"/><v:tabList/>T3<v:lf/><tspan
						x="4.43" dy="1.2em" class="st6">Balun</tspan></text>		</g>
		<g id="shape61-171" v:mID="61" v:groupContext="shape" transform="translate(254.076,-129.351)">
			<title>Sheet.61</title>
			<desc>T2 Balun</desc>
			<v:textBlock v:margins="rect(4,4,4,4)" v:tabSpace="42.5197"/>
			<v:textRect cx="11.3386" cy="299.805" width="22.68" height="25.5118"/>
			<rect x="0" y="287.049" width="22.6772" height="25.5118" class="st14"/>
			<text x="8.36" y="298.01" class="st5" v:langID="1033"><v:paragraph v:horizAlign="1"/><v:tabList/>T2<v:lf/><tspan
						x="4.43" dy="1.2em" class="st6">Balun</tspan></text>		</g>
		<g id="shape62-175" v:mID="62" v:groupContext="shape" transform="translate(-157.698,276.753) rotate(-90)">
			<title>Sheet.62</title>
			<desc>T7 Balun</desc>
			<v:textBlock v:margins="rect(4,4,4,4)" v:tabSpace="42.5197"/>
			<v:textRect cx="11.3386" cy="299.805" width="22.68" height="25.5118" transform="rotate(90)"/>
			<rect x="0" y="287.049" width="22.6772" height="25.5118" class="st14"/>
			<text x="296.82" y="-13.14" transform="rotate(90)" class="st5" v:langID="1033"><v:paragraph v:horizAlign="1"/><v:tabList/>T7<v:lf/><tspan
						x="292.9" dy="1.2em" class="st6">Balun</tspan></text>		</g>
		<g id="shape63-179" v:mID="63" v:groupContext="shape" transform="translate(-129.351,276.753) rotate(-90)">
			<title>Sheet.63</title>
			<desc>T15 Balun</desc>
			<v:textBlock v:margins="rect(4,4,4,4)" v:tabSpace="42.5197"/>
			<v:textRect cx="11.3386" cy="299.805" width="22.68" height="25.5118" transform="rotate(90)"/>
			<rect x="0" y="287.049" width="22.6772" height="25.5118" class="st13"/>
			<text x="295.3" y="-13.14" transform="rotate(90)" class="st5" v:langID="1033"><v:paragraph v:horizAlign="1"/><v:tabList/>T15<v:lf/><tspan
						x="292.9" dy="1.2em" class="st6">Balun</tspan></text>		</g>
		<g id="group64-183" transform="translate(-163.367,254.076) rotate(-90)" v:mID="64" v:groupContext="group">
			<title>Sheet.64</title>
			<g id="shape65-184" v:mID="65" v:groupContext="shape" transform="translate(7.08661,610.949) rotate(180)">
				<title>Sheet.65</title>
				<path d="M0 312.56 L7.09 312.56" class="st3"/>
			</g>
			<g id="shape66-187" v:mID="66" v:groupContext="shape" transform="translate(7.08661,625.122) rotate(180)">
				<title>Sheet.66</title>
				<path d="M0 312.56 L7.09 312.56" class="st3"/>
			</g>
		</g>
		<g id="group67-190" transform="translate(-135.021,254.076) rotate(-90)" v:mID="67" v:groupContext="group">
			<title>Sheet.67</title>
			<g id="shape68-191" v:mID="68" v:groupContext="shape" transform="translate(7.08661,610.949) rotate(180)">
				<title>Sheet.68</title>
				<path d="M0 312.56 L7.09 312.56" class="st3"/>
			</g>
			<g id="shape69-194" v:mID="69" v:groupContext="shape" transform="translate(7.08661,625.122) rotate(180)">
				<title>Sheet.69</title>
				<path d="M0 312.56 L7.09 312.56" class="st3"/>
			</g>
		</g>
		<g id="group70-197" transform="translate(-163.367,65.5719) rotate(-90)" v:mID="70" v:groupContext="group">
			<title>Sheet.70</title>
			<g id="shape71-198" v:mID="71" v:groupContext="shape" transform="translate(7.08661,610.949) rotate(180)">
				<title>Sheet.71</title>
				<path d="M0 312.56 L7.09 312.56" class="st3"/>
			</g>
			<g id="shape72-201" v:mID="72" v:groupContext="shape" transform="translate(7.08661,625.122) rotate(180)">
				<title>Sheet.72</title>
				<path d="M0 312.56 L7.09 312.56" class="st3"/>
			</g>
		</g>
		<g id="group73-204" transform="translate(-135.021,65.5719) rotate(-90)" v:mID="73" v:groupContext="group">
			<title>Sheet.73</title>
			<g id="shape74-205" v:mID="74" v:groupContext="shape" transform="translate(7.08661,610.949) rotate(180)">
				<title>Sheet.74</title>
				<path d="M0 312.56 L7.09 312.56" class="st3"/>
			</g>
			<g id="shape75-208" v:mID="75" v:groupContext="shape" transform="translate(7.08661,625.122) rotate(180)">
				<title>Sheet.75</title>
				<path d="M0 312.56 L7.09 312.56" class="st3"/>
			</g>
		</g>
		<g id="group76-211" transform="translate(65.5718,475.928) rotate(180)" v:mID="76" v:groupContext="group">
			<title>Sheet.76</title>
			<g id="shape77-212" v:mID="77" v:groupContext="shape" transform="translate(7.08661,610.949) rotate(180)">
				<title>Sheet.77</title>
				<path d="M0 312.56 L7.09 312.56" class="st3"/>
			</g>
			<g id="shape78-215" v:mID="78" v:groupContext="shape" transform="translate(7.08661,625.122) rotate(180)">
				<title>Sheet.78</title>
				<path d="M0 312.56 L7.09 312.56" class="st3"/>
			</g>
		</g>
		<g id="group79-218" transform="translate(65.5718,447.582) rotate(180)" v:mID="79" v:groupContext="group">
			<title>Sheet.79</title>
			<g id="shape80-219" v:mID="80" v:groupContext="shape" transform="translate(7.08661,610.949) rotate(180)">
				<title>Sheet.80</title>
				<path d="M0 312.56 L7.09 312.56" class="st3"/>
			</g>
			<g id="shape81-222" v:mID="81" v:groupContext="shape" transform="translate(7.08661,625.122) rotate(180)">
				<title>Sheet.81</title>
				<path d="M0 312.56 L7.09 312.56" class="st3"/>
			</g>
		</g>
		<g id="group88-225" transform="translate(254.076,475.928) rotate(180)" v:mID="88" v:groupContext="group">
			<title>Sheet.88</title>
			<g id="shape89-226" v:mID="89" v:groupContext="shape" transform="translate(7.08661,610.949) rotate(180)">
				<title>Sheet.89</title>
				<path d="M0 312.56 L7.09 312.56" class="st3"/>
			</g>
			<g id="shape90-229" v:mID="90" v:groupContext="shape" transform="translate(7.08661,625.122) rotate(180)">
				<title>Sheet.90</title>
				<path d="M0 312.56 L7.09 312.56" class="st3"/>
			</g>
		</g>
		<g id="group91-232" transform="translate(254.076,447.582) rotate(180)" v:mID="91" v:groupContext="group">
			<title>Sheet.91</title>
			<g id="shape92-233" v:mID="92" v:groupContext="shape" transform="translate(7.08661,610.949) rotate(180)">
				<title>Sheet.92</title>
				<path d="M0 312.56 L7.09 312.56" class="st3"/>
			</g>
			<g id="shape93-236" v:mID="93" v:groupContext="shape" transform="translate(7.08661,625.122) rotate(180)">
				<title>Sheet.93</title>
				<path d="M0 312.56 L7.09 312.56" class="st3"/>
			</g>
		</g>
		<g id="shape94-239" v:mID="94" v:groupContext="shape" transform="translate(294.044,-161.383)">
			<title>Sheet.94</title>
			<desc>J4</desc>
			<v:textBlock v:margins="rect(4,4,4,4)" v:tabSpace="42.5197"/>
			<v:textRect cx="9.07087" cy="303.49" width="18.15" height="18.1417"/>
			<ellipse cx="9.07087" cy="303.49" rx="9.07087" ry="9.07087" class="st15"/>
			<text x="4.12" y="307.09" class="st12" v:langID="1033"><v:paragraph v:horizAlign="1"/><v:tabList/>J4</text>		</g>
		<g id="shape95-242" v:mID="95" v:groupContext="shape" transform="translate(294.044,-134.454)">
			<title>Sheet.95</title>
			<desc>J7</desc>
			<v:textBlock v:margins="rect(4,4,4,4)" v:tabSpace="42.5197"/>
			<v:textRect cx="9.07087" cy="303.49" width="18.15" height="18.1417"/>
			<ellipse cx="9.07087" cy="303.49" rx="9.07087" ry="9.07087" class="st15"/>
			<text x="4.12" y="307.09" class="st12" v:langID="1033"><v:paragraph v:horizAlign="1"/><v:tabList/>J7</text>		</g>
		<g id="shape98-245" v:mID="98" v:groupContext="shape" transform="translate(276.753,-170.454)">
			<title>Sheet.98</title>
			<path d="M0 312.56 L17.3 312.56" class="st3"/>
		</g>
		<g id="shape99-248" v:mID="99" v:groupContext="shape" transform="translate(276.753,-143.525)">
			<title>Sheet.99</title>
			<path d="M0 312.56 L17.3 312.56" class="st3"/>
		</g>
		<g id="shape100-251" v:mID="100" v:groupContext="shape" transform="translate(276.753,-174.818)">
			<title>Sheet.100</title>
			<desc>Single IN</desc>
			<v:textBlock v:margins="rect(4,4,4,4)" v:tabSpace="42.5197"/>
			<v:textRect cx="11.3386" cy="308.365" width="22.68" height="8.39204"/>
			<rect x="0" y="304.169" width="22.6772" height="8.39204" class="st4"/>
			<text x="4.1" y="306.57" class="st5" v:langID="1033"><v:paragraph v:horizAlign="1"/><v:tabList/>Single <tspan x="8.65"
						dy="1.2em" class="st6">IN</tspan></text>		</g>
		<g id="shape102-255" v:mID="102" v:groupContext="shape" transform="translate(276.753,-146.471)">
			<title>Sheet.102</title>
			<desc>Single IN</desc>
			<v:textBlock v:margins="rect(4,4,4,4)" v:tabSpace="42.5197"/>
			<v:textRect cx="11.3386" cy="308.365" width="22.68" height="8.39204"/>
			<rect x="0" y="304.169" width="22.6772" height="8.39204" class="st4"/>
			<text x="4.1" y="306.57" class="st5" v:langID="1033"><v:paragraph v:horizAlign="1"/><v:tabList/>Single <tspan x="8.65"
						dy="1.2em" class="st6">IN</tspan></text>		</g>
		<g id="shape103-259" v:mID="103" v:groupContext="shape" transform="translate(18.5167,-159.966) scale(-1,1)">
			<title>Sheet.103</title>
			<desc>J5</desc>
			<v:textBlock v:margins="rect(4,4,4,4)" v:tabSpace="42.5197"/>
			<v:textRect cx="9.07087" cy="303.49" width="18.15" height="18.1417"/>
			<ellipse cx="9.07087" cy="303.49" rx="9.07087" ry="9.07087" class="st16"/>
			<text x="-14.02" y="307.09" transform="scale(-1,1)" class="st12" v:langID="1033"><v:paragraph v:horizAlign="1"/><v:tabList/>J5</text>		</g>
		<g id="shape104-262" v:mID="104" v:groupContext="shape" transform="translate(18.5167,-133.036) scale(-1,1)">
			<title>Sheet.104</title>
			<desc>J6</desc>
			<v:textBlock v:margins="rect(4,4,4,4)" v:tabSpace="42.5197"/>
			<v:textRect cx="9.07087" cy="303.49" width="18.15" height="18.1417"/>
			<ellipse cx="9.07087" cy="303.49" rx="9.07087" ry="9.07087" class="st16"/>
			<text x="-14.02" y="307.09" transform="scale(-1,1)" class="st12" v:langID="1033"><v:paragraph v:horizAlign="1"/><v:tabList/>J6</text>		</g>
		<g id="shape105-265" v:mID="105" v:groupContext="shape" transform="translate(35.8081,-169.036) scale(-1,1)">
			<title>Sheet.105</title>
			<path d="M0 312.56 L17.3 312.56" class="st3"/>
		</g>
		<g id="shape106-268" v:mID="106" v:groupContext="shape" transform="translate(35.8081,-142.107) scale(-1,1)">
			<title>Sheet.106</title>
			<path d="M0 312.56 L17.3 312.56" class="st3"/>
		</g>
		<g id="shape107-271" v:mID="107" v:groupContext="shape" transform="translate(35.8081,-173.4) scale(-1,1)">
			<title>Sheet.107</title>
			<desc>Single IN</desc>
			<v:textBlock v:margins="rect(4,4,4,4)" v:tabSpace="42.5197"/>
			<v:textRect cx="11.3386" cy="308.365" width="22.68" height="8.39204"/>
			<rect x="0" y="304.169" width="22.6772" height="8.39204" class="st4"/>
			<text x="-18.57" y="306.57" transform="scale(-1,1)" class="st5" v:langID="1033"><v:paragraph v:horizAlign="1"/><v:tabList/>Single <tspan
						x="-14.03" dy="1.2em" class="st6">IN</tspan></text>		</g>
		<g id="shape108-275" v:mID="108" v:groupContext="shape" transform="translate(35.8081,-145.054) scale(-1,1)">
			<title>Sheet.108</title>
			<desc>Single IN</desc>
			<v:textBlock v:margins="rect(4,4,4,4)" v:tabSpace="42.5197"/>
			<v:textRect cx="11.3386" cy="308.365" width="22.68" height="8.39204"/>
			<rect x="0" y="304.169" width="22.6772" height="8.39204" class="st4"/>
			<text x="-18.57" y="306.57" transform="scale(-1,1)" class="st5" v:langID="1033"><v:paragraph v:horizAlign="1"/><v:tabList/>Single <tspan
						x="-14.03" dy="1.2em" class="st6">IN</tspan></text>		</g>
		<g id="shape109-279" v:mID="109" v:groupContext="shape" transform="translate(134.17,-294.044)">
			<title>Sheet.109</title>
			<desc>J8</desc>
			<v:textBlock v:margins="rect(4,4,4,4)" v:tabSpace="42.5197"/>
			<v:textRect cx="9.07087" cy="303.49" width="18.15" height="18.1417"/>
			<ellipse cx="9.07087" cy="303.49" rx="9.07087" ry="9.07087" class="st15"/>
			<text x="4.12" y="307.09" class="st12" v:langID="1033"><v:paragraph v:horizAlign="1"/><v:tabList/>J8</text>		</g>
		<g id="shape110-282" v:mID="110" v:groupContext="shape" transform="translate(161.099,-294.044)">
			<title>Sheet.110</title>
			<ellipse cx="9.07087" cy="303.49" rx="9.07087" ry="9.07087" class="st16"/>
		</g>
		<g id="shape111-284" v:mID="111" v:groupContext="shape" transform="translate(-169.32,35.8081) rotate(-90)">
			<title>Sheet.111</title>
			<path d="M0 312.56 L17.3 312.56" class="st3"/>
		</g>
		<g id="shape112-287" v:mID="112" v:groupContext="shape" transform="translate(-142.391,35.8081) rotate(-90)">
			<title>Sheet.112</title>
			<path d="M0 312.56 L17.3 312.56" class="st3"/>
		</g>
		<g id="shape113-290" v:mID="113" v:groupContext="shape" transform="translate(123.343,-281.684)">
			<title>Sheet.113</title>
			<desc>Single OUT</desc>
			<v:textBlock v:margins="rect(4,4,4,4)" v:tabSpace="42.5197"/>
			<v:textRect cx="11.3386" cy="308.365" width="22.68" height="8.39204"/>
			<rect x="0" y="304.169" width="22.6772" height="8.39204" class="st4"/>
			<text x="4.1" y="306.57" class="st5" v:langID="1033"><v:paragraph v:horizAlign="1"/><v:tabList/>Single <tspan x="5.97"
						dy="1.2em" class="st6">OUT</tspan></text>		</g>
		<g id="shape114-294" v:mID="114" v:groupContext="shape" transform="translate(149.194,-281.684)">
			<title>Sheet.114</title>
			<desc>Single OUT</desc>
			<v:textBlock v:margins="rect(4,4,4,4)" v:tabSpace="42.5197"/>
			<v:textRect cx="11.3386" cy="308.365" width="22.68" height="8.39204"/>
			<rect x="0" y="304.169" width="22.6772" height="8.39204" class="st4"/>
			<text x="4.1" y="306.57" class="st5" v:langID="1033"><v:paragraph v:horizAlign="1"/><v:tabList/>Single <tspan x="5.97"
						dy="1.2em" class="st6">OUT</tspan></text>		</g>
		<g id="shape115-298" v:mID="115" v:groupContext="shape" transform="translate(157.698,-293.761)">
			<title>Sheet.115</title>
			<desc>J11</desc>
			<v:textBlock v:margins="rect(4,4,4,4)" v:tabSpace="42.5197"/>
			<v:textRect cx="12.7559" cy="303.348" width="25.52" height="18.4252"/>
			<rect x="0" y="294.136" width="25.5118" height="18.4252" class="st4"/>
			<text x="4.76" y="306.95" class="st12" v:langID="1033"><v:paragraph v:horizAlign="1"/><v:tabList/>J11</text>		</g>
		<g id="shape117-301" v:mID="117" v:groupContext="shape" transform="translate(133.092,606.605) scale(1,-1)">
			<title>Sheet.117</title>
			<desc>J9</desc>
			<v:textBlock v:margins="rect(4,4,4,4)" v:tabSpace="42.5197"/>
			<v:textRect cx="9.07087" cy="303.49" width="18.15" height="18.1417"/>
			<ellipse cx="9.07087" cy="303.49" rx="9.07087" ry="9.07087" class="st15"/>
			<text x="4.12" y="-299.89" transform="scale(1,-1)" class="st12" v:langID="1033"><v:paragraph v:horizAlign="1"/><v:tabList/>J9</text>		</g>
		<g id="shape118-304" v:mID="118" v:groupContext="shape" transform="translate(160.022,606.605) scale(1,-1)">
			<title>Sheet.118</title>
			<ellipse cx="9.07087" cy="303.49" rx="9.07087" ry="9.07087" class="st16"/>
		</g>
		<g id="shape119-306" v:mID="119" v:groupContext="shape" transform="translate(-170.398,276.753) rotate(-90) scale(-1,1)">
			<title>Sheet.119</title>
			<path d="M0 312.56 L17.3 312.56" class="st3"/>
		</g>
		<g id="shape120-309" v:mID="120" v:groupContext="shape" transform="translate(-143.469,276.753) rotate(-90) scale(-1,1)">
			<title>Sheet.120</title>
			<path d="M0 312.56 L17.3 312.56" class="st3"/>
		</g>
		<g id="shape121-312" v:mID="121" v:groupContext="shape" transform="translate(122.265,594.245) scale(1,-1)">
			<title>Sheet.121</title>
			<desc>Single OUT</desc>
			<v:textBlock v:margins="rect(4,4,4,4)" v:tabSpace="42.5197"/>
			<v:textRect cx="11.3386" cy="308.365" width="22.68" height="8.39204"/>
			<rect x="0" y="304.169" width="22.6772" height="8.39204" class="st4"/>
			<text x="4.1" y="-310.16" transform="scale(1,-1)" class="st5" v:langID="1033"><v:paragraph v:horizAlign="1"/><v:tabList/>Single <tspan
						x="5.97" dy="1.2em" class="st6">OUT</tspan></text>		</g>
		<g id="shape122-316" v:mID="122" v:groupContext="shape" transform="translate(149.194,594.245) scale(1,-1)">
			<title>Sheet.122</title>
			<desc>Single OUT</desc>
			<v:textBlock v:margins="rect(4,4,4,4)" v:tabSpace="42.5197"/>
			<v:textRect cx="11.3386" cy="308.365" width="22.68" height="8.39204"/>
			<rect x="0" y="304.169" width="22.6772" height="8.39204" class="st4"/>
			<text x="4.1" y="-310.16" transform="scale(1,-1)" class="st5" v:langID="1033"><v:paragraph v:horizAlign="1"/><v:tabList/>Single <tspan
						x="5.97" dy="1.2em" class="st6">OUT</tspan></text>		</g>
		<g id="shape123-320" v:mID="123" v:groupContext="shape" transform="translate(156.62,606.322) scale(1,-1)">
			<title>Sheet.123</title>
			<desc>J10</desc>
			<v:textBlock v:margins="rect(4,4,4,4)" v:tabSpace="42.5197"/>
			<v:textRect cx="12.7559" cy="303.348" width="25.52" height="18.4252"/>
			<rect x="0" y="294.136" width="25.5118" height="18.4252" class="st4"/>
			<text x="4.76" y="-299.75" transform="scale(1,-1)" class="st12" v:langID="1033"><v:paragraph v:horizAlign="1"/><v:tabList/>J10</text>		</g>
		<g id="shape124-323" v:mID="124" v:groupContext="shape" transform="translate(-90.2453,341.861) rotate(-135)">
			<title>Sheet.124</title>
			<path d="M0 312.56 L35.64 312.56" class="st3"/>
		</g>
		<g id="shape125-326" v:mID="125" v:groupContext="shape" transform="translate(-100.167,351.783) rotate(-135)">
			<title>Sheet.125</title>
			<path d="M0 312.56 L35.64 312.56" class="st3"/>
		</g>
		<g id="shape126-329" v:mID="126" v:groupContext="shape" transform="translate(-109.115,-91.9475) rotate(-45)">
			<title>Sheet.126</title>
			<desc>Diff IN</desc>
			<v:textBlock v:margins="rect(4,4,4,4)" v:tabSpace="42.5197"/>
			<v:textRect cx="11.3386" cy="304.057" width="22.68" height="17.0079"/>
			<rect x="0" y="295.553" width="22.6772" height="17.0079" class="st4"/>
			<text x="6.97" y="302.26" class="st5" v:langID="1033"><v:paragraph v:horizAlign="1"/><v:tabList/>Diff <tspan x="8.65"
						dy="1.2em" class="st6">IN</tspan></text>		</g>
		<g id="shape127-333" v:mID="127" v:groupContext="shape" transform="translate(-137.017,285.554) rotate(-135)">
			<title>Sheet.127</title>
			<desc>T1 Balun</desc>
			<v:textBlock v:margins="rect(4,4,4,4)" v:tabSpace="42.5197"/>
			<v:textRect cx="11.3386" cy="299.805" width="22.68" height="25.5118" transform="rotate(90)"/>
			<rect x="0" y="287.049" width="22.6772" height="25.5118" class="st13"/>
			<text x="296.82" y="-13.14" transform="rotate(90)" class="st5" v:langID="1033"><v:paragraph v:horizAlign="1"/><v:tabList/>T1<v:lf/><tspan
						x="292.9" dy="1.2em" class="st6">Balun</tspan></text>		</g>
		<g id="shape128-337" v:mID="128" v:groupContext="shape" transform="translate(-168.397,-180.258) rotate(-42)">
			<title>Sheet.128</title>
			<ellipse cx="9.07087" cy="303.49" rx="9.07087" ry="9.07087" class="st15"/>
		</g>
		<g id="shape130-339" v:mID="130" v:groupContext="shape" transform="translate(-178.977,-152.608) rotate(-45)">
			<title>Sheet.130</title>
			<desc>Single IN</desc>
			<v:textBlock v:margins="rect(4,4,4,4)" v:tabSpace="42.5197"/>
			<v:textRect cx="11.3386" cy="308.365" width="22.68" height="8.39204"/>
			<rect x="0" y="304.169" width="22.6772" height="8.39204" class="st4"/>
			<text x="4.1" y="306.57" class="st5" v:langID="1033"><v:paragraph v:horizAlign="1"/><v:tabList/>Single <tspan x="8.65"
						dy="1.2em" class="st6">IN</tspan></text>		</g>
		<g id="shape131-343" v:mID="131" v:groupContext="shape" transform="translate(28.6625,-263.997)">
			<title>Sheet.131</title>
			<desc>J3</desc>
			<v:textBlock v:margins="rect(4,4,4,4)" v:tabSpace="42.5197"/>
			<v:textRect cx="12.7559" cy="303.348" width="25.52" height="18.4252"/>
			<rect x="0" y="294.136" width="25.5118" height="18.4252" class="st4"/>
			<text x="7.8" y="306.95" class="st12" v:langID="1033"><v:paragraph v:horizAlign="1"/><v:tabList/>J3</text>		</g>
		<g id="shape132-346" v:mID="132" v:groupContext="shape" transform="translate(-162.095,278.575) rotate(-135)">
			<title>Sheet.132</title>
			<path d="M0 312.56 L16.3 312.56" class="st3"/>
		</g>
		<g id="shape134-349" v:mID="134" v:groupContext="shape" transform="translate(-132.086,-108.176) rotate(-45)">
			<title>Sheet.134</title>
			<desc>Matching network</desc>
			<v:textBlock v:margins="rect(4,4,4,4)" v:tabSpace="42.5197"/>
			<v:textRect cx="17.0079" cy="299.805" width="34.02" height="25.5118"/>
			<rect x="0" y="287.049" width="34.0157" height="25.5118" class="st17"/>
			<text x="5.48" y="298.01" class="st5" v:langID="1033"><v:paragraph v:horizAlign="1"/><v:tabList/>Matching <tspan
						x="6.8" dy="1.2em" class="st6">network</tspan></text>		</g>
		<g id="shape135-353" v:mID="135" v:groupContext="shape" transform="translate(-133.237,298.869) rotate(-135)">
			<title>Sheet.135</title>
			<path d="M0 312.56 L12.03 312.56" class="st3"/>
		</g>
		<g id="shape136-356" v:mID="136" v:groupContext="shape" transform="translate(-143.064,308.885) rotate(-135)">
			<title>Sheet.136</title>
			<path d="M0 312.56 L12.16 312.56" class="st3"/>
		</g>
		<g id="group150-359" transform="translate(209.43,-208.155)" v:mID="150" v:groupContext="group">
			<title>Sheet.150</title>
			<g id="shape137-360" v:mID="137" v:groupContext="shape" transform="translate(3.59712E-14,-76.5354)">
				<title>Sheet.137</title>
				<ellipse cx="9.07087" cy="303.49" rx="9.07087" ry="9.07087" class="st15"/>
			</g>
			<g id="shape138-362" v:mID="138" v:groupContext="shape" transform="translate(17.7018,-77.811)">
				<title>Sheet.138</title>
				<desc>SMA</desc>
				<v:textBlock v:margins="rect(4,4,4,4)" v:tabSpace="42.5197"/>
				<v:textRect cx="17.0374" cy="304.766" width="34.08" height="15.5906"/>
				<rect x="0" y="296.97" width="34.0748" height="15.5906" class="st4"/>
				<text x="7.57" y="307.77" class="st18" v:langID="1033"><v:paragraph v:horizAlign="1"/><v:tabList/>SMA</text>			</g>
			<g id="shape142-365" v:mID="142" v:groupContext="shape" transform="translate(18.1417,-55.2756) scale(-1,1)">
				<title>Sheet.142</title>
				<ellipse cx="9.07087" cy="303.49" rx="9.07087" ry="9.07087" class="st16"/>
			</g>
			<g id="shape143-367" v:mID="143" v:groupContext="shape" transform="translate(14.8376,-56.5512)">
				<title>Sheet.143</title>
				<desc>UFL</desc>
				<v:textBlock v:margins="rect(4,4,4,4)" v:tabSpace="42.5197"/>
				<v:textRect cx="17.0374" cy="304.766" width="34.08" height="15.5906"/>
				<rect x="0" y="296.97" width="34.0748" height="15.5906" class="st4"/>
				<text x="9.43" y="307.77" class="st18" v:langID="1033"><v:paragraph v:horizAlign="1"/><v:tabList/>UFL</text>			</g>
			<g id="shape144-370" v:mID="144" v:groupContext="shape" transform="translate(-287.049,285.632) rotate(-90)">
				<title>Sheet.144</title>
				<desc>Balun</desc>
				<v:textBlock v:margins="rect(4,4,4,4)" v:tabSpace="42.5197"/>
				<v:textRect cx="11.3386" cy="299.805" width="22.68" height="25.5118" transform="rotate(90)"/>
				<rect x="0" y="287.049" width="22.6772" height="25.5118" class="st13"/>
				<text x="292.9" y="-9.54" transform="rotate(90)" class="st5" v:langID="1033"><v:paragraph v:horizAlign="1"/><v:tabList/>Balun</text>			</g>
			<g id="shape145-373" v:mID="145" v:groupContext="shape" transform="translate(20.3091,-3.54331)">
				<title>Sheet.145</title>
				<desc>NCR2-113+</desc>
				<v:textBlock v:margins="rect(4,4,4,4)" v:tabSpace="42.5197"/>
				<v:textRect cx="32.8405" cy="304.766" width="65.69" height="15.5906"/>
				<rect x="0" y="296.97" width="65.6811" height="15.5906" class="st4"/>
				<text x="10.07" y="307.77" class="st18" v:langID="1033"><v:paragraph v:horizAlign="1"/><v:tabList/>NCR2-113+</text>			</g>
			<g id="shape146-376" v:mID="146" v:groupContext="shape" transform="translate(-287.049,312.561) rotate(-90)">
				<title>Sheet.146</title>
				<desc>Balun</desc>
				<v:textBlock v:margins="rect(4,4,4,4)" v:tabSpace="42.5197"/>
				<v:textRect cx="11.3386" cy="299.805" width="22.68" height="25.5118" transform="rotate(90)"/>
				<rect x="0" y="287.049" width="22.6772" height="25.5118" class="st14"/>
				<text x="292.9" y="-9.54" transform="rotate(90)" class="st5" v:langID="1033"><v:paragraph v:horizAlign="1"/><v:tabList/>Balun</text>			</g>
			<g id="shape148-379" v:mID="148" v:groupContext="shape" transform="translate(19.1338,-30.4725)">
				<title>Sheet.148</title>
				<desc>TC1-1-13M+</desc>
				<v:textBlock v:margins="rect(4,4,4,4)" v:tabSpace="42.5197"/>
				<v:textRect cx="35.4331" cy="304.766" width="70.87" height="15.5906"/>
				<rect x="0" y="296.97" width="70.8661" height="15.5906" class="st4"/>
				<text x="10.37" y="307.77" class="st18" v:langID="1033"><v:paragraph v:horizAlign="1"/><v:tabList/>TC1-1-13M+</text>			</g>
		</g>
		<g id="shape152-382" v:mID="152" v:groupContext="shape" transform="translate(241.32,-195.966)">
			<title>Sheet.152</title>
			<desc>LEGEND</desc>
			<v:textBlock v:margins="rect(4,4,4,4)" v:tabSpace="42.5197"/>
			<v:textRect cx="32.8405" cy="304.766" width="65.69" height="15.5906"/>
			<rect x="0" y="296.97" width="65.6811" height="15.5906" class="st4"/>
			<text x="13.11" y="308.37" class="st12" v:langID="1033"><v:paragraph v:horizAlign="1"/><v:tabList/>LEGEND</text>		</g>
	</g>
</svg>
