<?xml version="1.0" encoding="UTF-8" standalone="no"?>
<!DOCTYPE svg PUBLIC "-//W3C//DTD SVG 1.1//EN" "http://www.w3.org/Graphics/SVG/1.1/DTD/svg11.dtd">
<!-- Generated by Microsoft Visio, SVG Export Digital_BlockDiagram_board_3v2.svg Page-1 -->
<svg xmlns="http://www.w3.org/2000/svg" xmlns:xlink="http://www.w3.org/1999/xlink" xmlns:ev="http://www.w3.org/2001/xml-events"
		xmlns:v="http://schemas.microsoft.com/visio/2003/SVGExtensions/" width="4.3864in" height="3.7742in"
		viewBox="0 0 315.821 271.742" xml:space="preserve" color-interpolation-filters="sRGB" class="st22">
	<v:documentProperties v:langID="1033" v:viewMarkup="false"/>

	<style type="text/css">
	<![CDATA[
		.st1 {fill:#d8d8d8;stroke:#000000;stroke-linecap:round;stroke-linejoin:round;stroke-width:0.75}
		.st2 {fill:#d9958f;stroke:#000000;stroke-linecap:round;stroke-linejoin:round;stroke-width:0.75}
		.st3 {fill:#000000;font-family:Calibri;font-size:0.833336em}
		.st4 {font-size:1em}
		.st5 {fill:#c4d6a0;stroke:#000000;stroke-linecap:round;stroke-linejoin:round;stroke-width:0.75}
		.st6 {fill:#dcfcd8;stroke:#000000;stroke-linecap:round;stroke-linejoin:round;stroke-width:0.75}
		.st7 {fill:none;stroke:none;stroke-linecap:round;stroke-linejoin:round;stroke-width:0.75}
		.st8 {fill:#ddd6e5;stroke:#000000;stroke-linecap:round;stroke-linejoin:round;stroke-width:0.75}
		.st9 {fill:#b7dde8;stroke:#000000;stroke-linecap:round;stroke-linejoin:round;stroke-width:0.75}
		.st10 {fill:#fcebdd;stroke:#000000;stroke-linecap:round;stroke-linejoin:round;stroke-width:0.75}
		.st11 {fill:#e5b9b5;stroke:#000000;stroke-linecap:round;stroke-linejoin:round;stroke-width:0.75}
		.st12 {fill:#e9ffa6;stroke:#000000;stroke-linecap:round;stroke-linejoin:round;stroke-width:0.75}
		.st13 {stroke:#000000;stroke-linecap:round;stroke-linejoin:round;stroke-width:0.75}
		.st14 {fill:#00b050;stroke:#000000;stroke-linecap:round;stroke-linejoin:round;stroke-width:0.75}
		.st15 {marker-end:url(#mrkr4-65);stroke:#000000;stroke-linecap:round;stroke-linejoin:round;stroke-width:0.75}
		.st16 {fill:#000000;fill-opacity:1;stroke:#000000;stroke-opacity:1;stroke-width:0.34246575342466}
		.st17 {fill:#ffd965;stroke:#000000;stroke-linecap:round;stroke-linejoin:round;stroke-width:0.75}
		.st18 {fill:#fee599;stroke:#000000;stroke-linecap:round;stroke-linejoin:round;stroke-width:0.75}
		.st19 {fill:#ffffff;stroke:#000000;stroke-linecap:round;stroke-linejoin:round;stroke-width:0.75}
		.st20 {fill:#fbd7bb;stroke:#000000;stroke-linecap:round;stroke-linejoin:round;stroke-width:0.75}
		.st21 {fill:#000000;stroke:#000000;stroke-linecap:round;stroke-linejoin:round;stroke-width:0.75}
		.st22 {fill:none;fill-rule:evenodd;font-size:12px;overflow:visible;stroke-linecap:square;stroke-miterlimit:3}
	]]>
	</style>

	<defs id="Markers">
		<g id="lend4">
			<path d="M 2 1 L 0 0 L 2 -1 L 2 1 " style="stroke:none"/>
		</g>
		<marker id="mrkr4-65" class="st16" v:arrowType="4" v:arrowSize="0" v:setback="5.84" refX="-5.84" orient="auto"
				markerUnits="strokeWidth" overflow="visible">
			<use xlink:href="#lend4" transform="scale(-2.92,-2.92) "/>
		</marker>
	</defs>
	<g v:mID="0" v:index="1" v:groupContext="foregroundPage">
		<title>Page-1</title>
		<v:pageProperties v:drawingScale="0.0393701" v:pageScale="0.0393701" v:drawingUnits="24" v:shadowOffsetX="8.50394"
				v:shadowOffsetY="-8.50394"/>
		<g id="shape80-1" v:mID="80" v:groupContext="shape" transform="translate(136.58,-67.2726)">
			<title>Sheet.80</title>
			<path d="M153.64 176.21 L147.55 176.21 L147.55 258.99 L153.62 258.99 L142.03 264.66 L130.69 258.99 L136.36 258.99 L136.36
						 228.95 L47.17 229.07 L47.06 266.07 L53.13 266.07 L41.54 271.74 L30.2 266.07 L35.87 266.07 L35.87 229.03
						 L5.67 228.94 L5.67 235.02 L0 223.43 L5.67 212.09 L5.67 217.76 L136.36 217.88 L136.36 176.21 L131.11 176.21
						 L142.03 170.55 L153.64 176.21 Z" class="st1"/>
		</g>
		<g id="shape2-3" v:mID="2" v:groupContext="shape" transform="translate(50.69,-214.674)">
			<title>Sheet.2</title>
			<desc>J1 USB</desc>
			<v:textBlock v:margins="rect(4,4,4,4)" v:tabSpace="42.5197"/>
			<v:textRect cx="17.7165" cy="250.482" width="35.44" height="42.5197"/>
			<rect x="0" y="229.222" width="35.4331" height="42.5197" class="st2"/>
			<text x="13.59" y="247.48" class="st3" v:langID="1033"><v:paragraph v:horizAlign="1"/><v:tabList/>J1<v:lf/><tspan
						x="9.49" dy="1.2em" class="st4">USB</tspan></text>		</g>
		<g id="shape3-7" v:mID="3" v:groupContext="shape" transform="translate(54.2333,-172.155)">
			<title>Sheet.3</title>
			<desc>U2 TVS</desc>
			<v:textBlock v:margins="rect(4,4,4,4)" v:tabSpace="42.5197"/>
			<v:textRect cx="14.1732" cy="257.569" width="28.35" height="28.3465"/>
			<rect x="0" y="243.396" width="28.3465" height="28.3465" class="st5"/>
			<text x="8.43" y="254.57" class="st3" v:langID="1033"><v:paragraph v:horizAlign="1"/><v:tabList/>U2<v:lf/><tspan
						x="6.6" dy="1.2em" class="st4">TVS</tspan></text>		</g>
		<g id="group48-11" transform="translate(243.446,-170.737)" v:mID="48" v:groupContext="group">
			<title>Sheet.48</title>
			<g id="shape44-12" v:mID="44" v:groupContext="shape">
				<title>Sheet.44</title>
				<path d="M3.54 200.88 L70.87 200.88 L70.87 271.74 L0 271.74 L0 204.42 L3.54 200.88 Z" class="st6"/>
			</g>
			<g id="shape45-14" v:mID="45" v:groupContext="shape" transform="translate(0,-25.5118)">
				<title>Sheet.45</title>
				<desc>LMS8001A</desc>
				<v:textBlock v:margins="rect(4,4,4,4)" v:tabSpace="42.5197"/>
				<v:textRect cx="35.4331" cy="261.821" width="70.87" height="19.8425"/>
				<rect x="0" y="251.9" width="70.8661" height="19.8425" class="st7"/>
				<text x="13.73" y="264.82" class="st3" v:langID="1033"><v:paragraph v:horizAlign="1"/><v:tabList/>LMS8001A</text>			</g>
		</g>
		<g id="group67-17" transform="translate(242.029,-19.7923)" v:mID="67" v:groupContext="group">
			<title>Sheet.67</title>
			<g id="shape59-18" v:mID="59" v:groupContext="shape">
				<title>Sheet.59</title>
				<rect x="0" y="219.301" width="73.4173" height="52.441" class="st8"/>
			</g>
			<g id="shape63-20" v:mID="63" v:groupContext="shape" transform="translate(10.6299,-13.4646)">
				<title>Sheet.63</title>
				<desc>U18 ADF4002</desc>
				<v:textBlock v:margins="rect(4,4,4,4)" v:tabSpace="42.5197"/>
				<v:textRect cx="26.2205" cy="258.632" width="52.45" height="26.2205"/>
				<rect x="0" y="245.522" width="52.441" height="26.2205" class="st7"/>
				<text x="17.94" y="255.63" class="st3" v:langID="1033"><v:paragraph v:horizAlign="1"/><v:tabList/>U18<v:lf/><tspan
							x="7.82" dy="1.2em" class="st4">ADF4002</tspan></text>			</g>
		</g>
		<g id="shape1-24" v:mID="1" v:groupContext="shape" transform="translate(46.438,-68.69)">
			<title>Sheet.1</title>
			<desc>U3 MCU</desc>
			<v:textBlock v:margins="rect(4,4,4,4)" v:tabSpace="42.5197"/>
			<v:textRect cx="44.2913" cy="227.451" width="88.59" height="88.5827"/>
			<rect x="0" y="183.159" width="88.5827" height="88.5827" class="st9"/>
			<text x="38.55" y="224.45" class="st3" v:langID="1033"><v:paragraph v:horizAlign="1"/><v:tabList/>U3<v:lf/><tspan
						x="34.14" dy="1.2em" class="st4">MCU</tspan></text>		</g>
		<g id="shape81-28" v:mID="81" v:groupContext="shape" transform="translate(104.548,-191.714)">
			<title>Sheet.81</title>
			<path d="M16.7 234.61 L16.7 253.89 L33.99 253.89 L33.99 247.82 L39.66 259.41 L33.99 270.75 L33.99 265.08 L16.7 265.08
						 L16.7 271.74 L5.52 271.74 L5.52 234.61 L0 234.61 L11.19 228.94 L22.53 234.61 L16.7 234.61 Z" class="st10"/>
		</g>
		<g id="shape85-30" v:mID="85" v:groupContext="shape" transform="translate(170.029,-192.579)">
			<title>Sheet.85</title>
			<path d="M66.33 254.76 L66.33 248.81 L72 260.28 L66.33 271.74 L66.33 265.95 L0 265.95 L0 254.76 L66.33 254.76 Z"
					class="st11"/>
		</g>
		<g id="group87-32" transform="translate(146.784,-198.831)" v:mID="87" v:groupContext="group">
			<title>Sheet.87</title>
			<g id="shape46-33" v:mID="46" v:groupContext="shape" transform="translate(8.25093E-06,0.455539)">
				<title>Sheet.46</title>
				<rect x="0" y="260.555" width="19.8425" height="11.1867" class="st12"/>
			</g>
			<g id="shape42-35" v:mID="42" v:groupContext="shape" transform="translate(1.10237,-1.95245)">
				<title>Sheet.42</title>
				<path d="M0 268.47 L1.27 268.47 L2.55 265.19 L5.1 271.74 L7.64 265.19 L10.19 271.74 L12.74 265.19 L15.29 271.74 L16.56
							 268.47 L17.83 268.47" class="st13"/>
			</g>
		</g>
		<g id="shape52-38" v:mID="52" v:groupContext="shape" transform="translate(148.627,-110.076)">
			<title>Sheet.52</title>
			<desc>SPI and Digital Controls</desc>
			<v:textBlock v:margins="rect(4,4,4,4)" v:tabSpace="42.5197"/>
			<v:textRect cx="62.2205" cy="266.356" width="124.45" height="10.7717"/>
			<rect x="0" y="260.97" width="124.441" height="10.7717" class="st7"/>
			<text x="15.01" y="269.36" class="st3" v:langID="1033"><v:paragraph v:horizAlign="1"/><v:tabList/>SPI and Digital Controls</text>		</g>
		<g id="shape49-41" v:mID="49" v:groupContext="shape" transform="translate(170.029,-199.084)">
			<title>Sheet.49</title>
			<desc>LMS_GPIO0..8</desc>
			<v:textBlock v:margins="rect(4,4,4,4)" v:tabSpace="42.5197"/>
			<v:textRect cx="36.7087" cy="266.356" width="73.42" height="10.7717"/>
			<rect x="0" y="260.97" width="73.4173" height="10.7717" class="st7"/>
			<text x="7.64" y="269.36" class="st3" v:langID="1033"><v:paragraph v:horizAlign="1"/><v:tabList/>LMS_GPIO0..8</text>		</g>
		<g id="shape38-44" v:mID="38" v:groupContext="shape" transform="translate(-150.47,82.8632) rotate(-90)">
			<title>Sheet.38</title>
			<desc>GPIO0..8</desc>
			<v:textBlock v:margins="rect(4,4,4,4)" v:tabSpace="42.5197"/>
			<v:textRect cx="23.5276" cy="266.356" width="47.06" height="10.7717"/>
			<rect x="0" y="260.97" width="47.0551" height="10.7717" class="st7"/>
			<text x="5.63" y="269.36" class="st3" v:langID="1033"><v:paragraph v:horizAlign="1"/><v:tabList/>GPIO0..8</text>		</g>
		<g id="group100-47" transform="translate(46.438,-0.375)" v:mID="100" v:groupContext="group">
			<title>Sheet.100</title>
			<g id="group12-48" transform="translate(-218.026,271.742) rotate(-90)" v:mID="12" v:groupContext="group">
				<title>Sheet.12</title>
				<g id="shape5-49" v:mID="5" v:groupContext="shape" transform="translate(9.44882,-1.97274E-05)">
					<title>Sheet.5</title>
					<path d="M0 267.02 L9.45 262.29 L9.45 271.74 L0 267.02 Z" class="st14"/>
				</g>
				<g id="shape7-51" v:mID="7" v:groupContext="shape" transform="translate(281.191,262.293) rotate(90)">
					<title>Sheet.7</title>
					<path d="M0 271.74 L9.45 271.74" class="st13"/>
				</g>
				<g id="shape8-54" v:mID="8" v:groupContext="shape" transform="translate(9.44882,538.76) rotate(180)">
					<title>Sheet.8</title>
					<path d="M0 271.74 L9.45 271.74" class="st13"/>
				</g>
				<g id="shape9-57" v:mID="9" v:groupContext="shape" transform="translate(18.8976,-4.72441)">
					<title>Sheet.9</title>
					<path d="M0 271.74 L9.45 271.74" class="st13"/>
				</g>
				<g id="shape10-60" v:mID="10" v:groupContext="shape" transform="translate(-180.812,453.499) rotate(-135)">
					<title>Sheet.10</title>
					<path d="M0 271.74 L2.3 271.74" class="st15"/>
				</g>
				<g id="shape11-66" v:mID="11" v:groupContext="shape" transform="translate(-176.088,451.609) rotate(-135)">
					<title>Sheet.11</title>
					<path d="M0 271.74 L2.3 271.74" class="st15"/>
				</g>
			</g>
			<g id="group13-71" transform="translate(-196.766,271.742) rotate(-90)" v:mID="13" v:groupContext="group">
				<title>Sheet.13</title>
				<g id="shape14-72" v:mID="14" v:groupContext="shape" transform="translate(9.44882,-1.97274E-05)">
					<title>Sheet.14</title>
					<path d="M0 267.02 L9.45 262.29 L9.45 271.74 L0 267.02 Z" class="st14"/>
				</g>
				<g id="shape15-74" v:mID="15" v:groupContext="shape" transform="translate(281.191,262.293) rotate(90)">
					<title>Sheet.15</title>
					<path d="M0 271.74 L9.45 271.74" class="st13"/>
				</g>
				<g id="shape16-77" v:mID="16" v:groupContext="shape" transform="translate(9.44882,538.76) rotate(180)">
					<title>Sheet.16</title>
					<path d="M0 271.74 L9.45 271.74" class="st13"/>
				</g>
				<g id="shape17-80" v:mID="17" v:groupContext="shape" transform="translate(18.8976,-4.72441)">
					<title>Sheet.17</title>
					<path d="M0 271.74 L9.45 271.74" class="st13"/>
				</g>
				<g id="shape18-83" v:mID="18" v:groupContext="shape" transform="translate(-180.812,453.499) rotate(-135)">
					<title>Sheet.18</title>
					<path d="M0 271.74 L2.3 271.74" class="st15"/>
				</g>
				<g id="shape19-88" v:mID="19" v:groupContext="shape" transform="translate(-176.088,451.609) rotate(-135)">
					<title>Sheet.19</title>
					<path d="M0 271.74 L2.3 271.74" class="st15"/>
				</g>
			</g>
			<g id="group20-93" transform="translate(-175.506,271.742) rotate(-90)" v:mID="20" v:groupContext="group">
				<title>Sheet.20</title>
				<g id="shape21-94" v:mID="21" v:groupContext="shape" transform="translate(9.44882,-1.97274E-05)">
					<title>Sheet.21</title>
					<path d="M0 267.02 L9.45 262.29 L9.45 271.74 L0 267.02 Z" class="st14"/>
				</g>
				<g id="shape22-96" v:mID="22" v:groupContext="shape" transform="translate(281.191,262.293) rotate(90)">
					<title>Sheet.22</title>
					<path d="M0 271.74 L9.45 271.74" class="st13"/>
				</g>
				<g id="shape23-99" v:mID="23" v:groupContext="shape" transform="translate(9.44882,538.76) rotate(180)">
					<title>Sheet.23</title>
					<path d="M0 271.74 L9.45 271.74" class="st13"/>
				</g>
				<g id="shape24-102" v:mID="24" v:groupContext="shape" transform="translate(18.8976,-4.72441)">
					<title>Sheet.24</title>
					<path d="M0 271.74 L9.45 271.74" class="st13"/>
				</g>
				<g id="shape25-105" v:mID="25" v:groupContext="shape" transform="translate(-180.812,453.499) rotate(-135)">
					<title>Sheet.25</title>
					<path d="M0 271.74 L2.3 271.74" class="st15"/>
				</g>
				<g id="shape26-110" v:mID="26" v:groupContext="shape" transform="translate(-176.088,451.609) rotate(-135)">
					<title>Sheet.26</title>
					<path d="M0 271.74 L2.3 271.74" class="st15"/>
				</g>
			</g>
			<g id="shape30-115" v:mID="30" v:groupContext="shape" transform="translate(1.39888E-14,-5.90553)">
				<title>Sheet.30</title>
				<desc>LD1 LD2 LD3</desc>
				<v:textBlock v:margins="rect(4,4,4,4)" v:tabSpace="42.5197"/>
				<v:textRect cx="17.7165" cy="251.734" width="35.44" height="40.0157"/>
				<rect x="0" y="231.726" width="35.4331" height="40.0157" class="st7"/>
				<text x="10" y="242.73" class="st3" v:langID="1033"><v:paragraph v:horizAlign="1"/><v:tabList/>LD1<v:lf/><tspan
							x="10" dy="1.2em" class="st4">LD2<v:lf/></tspan><tspan x="10" dy="1.2em" class="st4">LD3</tspan></text>			</g>
			<g id="shape33-120" v:mID="33" v:groupContext="shape" transform="translate(42.378,-28.3465)">
				<title>Sheet.33</title>
				<path d="M0 271.74 L56.69 271.74" class="st13"/>
			</g>
			<g id="shape72-123" v:mID="72" v:groupContext="shape" transform="translate(-189.836,239.994) rotate(-90)">
				<title>Sheet.72</title>
				<path d="M5.67 254.48 L33.73 254.48 L33.73 265.82 L5.67 265.67 L5.67 271.74 L0 260.15 L5.67 248.81 L5.67 254.48 Z"
						class="st6"/>
			</g>
		</g>
		<g id="group104-125" transform="translate(91.7923,-235.934)" v:mID="104" v:groupContext="group">
			<title>Sheet.104</title>
			<g id="shape37-126" v:mID="37" v:groupContext="shape" transform="translate(6.94487,0)">
				<title>Sheet.37</title>
				<rect x="0" y="236.309" width="35.4331" height="35.4331" class="st17"/>
			</g>
			<g id="shape101-128" v:mID="101" v:groupContext="shape">
				<title>Sheet.101</title>
				<desc>P2 10 Pin header</desc>
				<v:textBlock v:margins="rect(4,4,4,4)" v:tabSpace="42.5197"/>
				<v:textRect cx="24.6614" cy="254.026" width="49.33" height="35.4331"/>
				<rect x="0" y="236.309" width="49.3228" height="35.4331" class="st7"/>
				<text x="19.54" y="245.03" class="st3" v:langID="1033"><v:paragraph v:horizAlign="1"/><v:tabList/>P2<v:lf/><tspan
							x="12.11" dy="1.2em" class="st4">10 Pin <v:lf/></tspan><tspan x="10.29" dy="1.2em" class="st4">header</tspan></text>			</g>
		</g>
		<g id="group105-133" transform="translate(153.588,-30.4222)" v:mID="105" v:groupContext="group">
			<title>Sheet.105</title>
			<g id="shape106-134" v:mID="106" v:groupContext="shape" transform="translate(6.94487,0)">
				<title>Sheet.106</title>
				<rect x="0" y="236.309" width="35.4331" height="35.4331" class="st17"/>
			</g>
			<g id="shape107-136" v:mID="107" v:groupContext="shape">
				<title>Sheet.107</title>
				<desc>P3 10 Pin header</desc>
				<v:textBlock v:margins="rect(4,4,4,4)" v:tabSpace="42.5197"/>
				<v:textRect cx="24.6614" cy="254.026" width="49.33" height="35.4331"/>
				<rect x="0" y="236.309" width="49.3228" height="35.4331" class="st7"/>
				<text x="19.54" y="245.03" class="st3" v:langID="1033"><v:paragraph v:horizAlign="1"/><v:tabList/>P3<v:lf/><tspan
							x="12.11" dy="1.2em" class="st4">10 Pin <v:lf/></tspan><tspan x="10.29" dy="1.2em" class="st4">header</tspan></text>			</g>
		</g>
		<g id="shape119-141" v:mID="119" v:groupContext="shape" transform="translate(1.80498,-94.2018)">
			<title>Sheet.119</title>
			<desc>SW2 BOOT</desc>
			<v:textBlock v:margins="rect(4,4,4,4)" v:tabSpace="42.5197"/>
			<v:textRect cx="19.8299" cy="260.277" width="39.66" height="22.9303"/>
			<rect x="0" y="248.812" width="39.6597" height="22.9303" class="st7"/>
			<text x="10.55" y="257.28" class="st3" v:langID="1033"><v:paragraph v:horizAlign="1"/><v:tabList/>SW2<v:lf/><tspan
						x="8.05" dy="1.2em" class="st4">BOOT</tspan></text>		</g>
		<g id="shape135-145" v:mID="135" v:groupContext="shape" transform="translate(2.15931,-144.453)">
			<title>Sheet.135</title>
			<desc>SW1 RESET</desc>
			<v:textBlock v:margins="rect(4,4,4,4)" v:tabSpace="42.5197"/>
			<v:textRect cx="19.8299" cy="260.277" width="39.66" height="22.9303"/>
			<rect x="0" y="248.812" width="39.6597" height="22.9303" class="st7"/>
			<text x="10.55" y="257.28" class="st3" v:langID="1033"><v:paragraph v:horizAlign="1"/><v:tabList/>SW1<v:lf/><tspan
						x="7.5" dy="1.2em" class="st4">RESET</tspan></text>		</g>
		<g id="group136-149" transform="translate(0.375001,-125.383)" v:mID="136" v:groupContext="group">
			<title>Sheet.136</title>
			<g id="shape120-150" v:mID="120" v:groupContext="shape" transform="translate(7.08661,0)">
				<title>Sheet.120</title>
				<rect x="0" y="251.9" width="28.3465" height="19.8425" class="st18"/>
			</g>
			<g id="shape125-152" v:mID="125" v:groupContext="shape" transform="translate(7.99361E-15,-7.08664)">
				<title>Sheet.125</title>
				<path d="M0 271.74 L14.17 271.74" class="st13"/>
			</g>
			<g id="shape127-155" v:mID="127" v:groupContext="shape" transform="translate(43.2283,-7.08666) scale(-1,1)">
				<title>Sheet.127</title>
				<path d="M0 271.74 L14.17 271.74" class="st13"/>
			</g>
			<g id="shape128-158" v:mID="128" v:groupContext="shape" transform="translate(30.4724,-5.66932) scale(-1,1)">
				<title>Sheet.128</title>
				<ellipse cx="1.41732" cy="270.325" rx="1.41732" ry="1.41732" class="st19"/>
			</g>
			<g id="shape131-160" v:mID="131" v:groupContext="shape" transform="translate(12.7559,-11.3386)">
				<title>Sheet.131</title>
				<path d="M0 271.74 L17.86 271.74" class="st13"/>
			</g>
			<g id="shape126-163" v:mID="126" v:groupContext="shape" transform="translate(12.7559,-5.6693)">
				<title>Sheet.126</title>
				<ellipse cx="1.41732" cy="270.325" rx="1.41732" ry="1.41732" class="st19"/>
			</g>
		</g>
		<g id="group137-165" transform="translate(0.375,-72.9419)" v:mID="137" v:groupContext="group">
			<title>Sheet.137</title>
			<g id="shape112-166" v:mID="112" v:groupContext="shape" transform="translate(7.08661,0)">
				<title>Sheet.112</title>
				<rect x="0" y="250.482" width="28.3465" height="21.2598" class="st20"/>
			</g>
			<g id="shape108-168" v:mID="108" v:groupContext="shape" transform="translate(1.59872E-14,-14.1732)">
				<title>Sheet.108</title>
				<path d="M0 271.74 L14.17 271.74" class="st13"/>
			</g>
			<g id="shape109-171" v:mID="109" v:groupContext="shape" transform="translate(12.7559,-12.7559)">
				<title>Sheet.109</title>
				<ellipse cx="1.41732" cy="270.325" rx="1.41732" ry="1.41732" class="st19"/>
			</g>
			<g id="shape110-173" v:mID="110" v:groupContext="shape" transform="translate(43.2283,-14.1733) scale(-1,1)">
				<title>Sheet.110</title>
				<path d="M0 271.74 L14.17 271.74" class="st13"/>
			</g>
			<g id="shape111-176" v:mID="111" v:groupContext="shape" transform="translate(30.4724,-12.7559) scale(-1,1)">
				<title>Sheet.111</title>
				<ellipse cx="1.41732" cy="270.325" rx="1.41732" ry="1.41732" class="st19"/>
			</g>
			<g id="shape113-178" v:mID="113" v:groupContext="shape" transform="translate(5.4209E-07,-7.08664)">
				<title>Sheet.113</title>
				<path d="M0 271.74 L14.17 271.74" class="st13"/>
			</g>
			<g id="shape114-181" v:mID="114" v:groupContext="shape" transform="translate(12.7559,-5.6693)">
				<title>Sheet.114</title>
				<ellipse cx="1.41732" cy="270.325" rx="1.41732" ry="1.41732" class="st19"/>
			</g>
			<g id="shape115-183" v:mID="115" v:groupContext="shape" transform="translate(43.2283,-7.08666) scale(-1,1)">
				<title>Sheet.115</title>
				<path d="M0 271.74 L14.17 271.74" class="st13"/>
			</g>
			<g id="shape116-186" v:mID="116" v:groupContext="shape" transform="translate(30.4724,-5.66932) scale(-1,1)">
				<title>Sheet.116</title>
				<ellipse cx="1.41732" cy="270.325" rx="1.41732" ry="1.41732" class="st19"/>
			</g>
			<g id="shape117-188" v:mID="117" v:groupContext="shape" transform="translate(-45.5975,518.856) rotate(-164.055)">
				<title>Sheet.117</title>
				<path d="M0 271.74 L11.1 271.74" class="st15"/>
			</g>
			<g id="shape118-193" v:mID="118" v:groupContext="shape" transform="translate(-45.5975,525.942) rotate(-164.055)">
				<title>Sheet.118</title>
				<path d="M0 271.74 L11.1 271.74" class="st15"/>
			</g>
		</g>
		<g id="shape138-198" v:mID="138" v:groupContext="shape" transform="translate(137.147,-210.422)">
			<title>Sheet.138</title>
			<desc>Resistors</desc>
			<v:textBlock v:margins="rect(4,4,4,4)" v:tabSpace="42.5197"/>
			<v:textRect cx="24.6614" cy="266.073" width="49.33" height="11.3386"/>
			<rect x="0" y="260.404" width="49.3228" height="11.3386" class="st7"/>
			<text x="6.39" y="269.07" class="st3" v:langID="1033"><v:paragraph v:horizAlign="1"/><v:tabList/>Resistors</text>		</g>
		<g id="shape149-201" v:mID="149" v:groupContext="shape" transform="translate(110.066,-158.832)">
			<title>Sheet.149</title>
			<path d="M0 271.74 L11.19 271.74 L11.19 264.37 L0 264.37 L0 271.74 Z" class="st10"/>
		</g>
		<g id="shape160-203" v:mID="160" v:groupContext="shape" transform="translate(116.17,-173.572)">
			<title>Sheet.160</title>
			<desc>Switches</desc>
			<v:textBlock v:margins="rect(4,4,4,4)" v:tabSpace="42.5197"/>
			<v:textRect cx="24.6614" cy="266.073" width="49.33" height="11.3386"/>
			<rect x="0" y="260.404" width="49.3228" height="11.3386" class="st7"/>
			<text x="6.78" y="269.07" class="st3" v:langID="1033"><v:paragraph v:horizAlign="1"/><v:tabList/>Switches</text>		</g>
		<g id="group169-206" transform="translate(110.218,-169.036)" v:mID="169" v:groupContext="group">
			<title>Sheet.169</title>
			<g id="shape151-207" v:mID="151" v:groupContext="shape" transform="translate(271.59,251.9) rotate(90)">
				<title>Sheet.151</title>
				<path d="M0 271.74 L19.84 271.74 L19.84 260.56 L0 260.56 L0 271.74 Z" class="st12"/>
			</g>
			<g id="group159-209" transform="translate(3.72047,-2.83465)" v:mID="159" v:groupContext="group">
				<title>Sheet.159</title>
				<g id="shape153-210" v:mID="153" v:groupContext="shape"
						transform="translate(273.159,271.742) rotate(90) scale(-1,1)">
					<title>Sheet.153</title>
					<path d="M0 271.74 L4.25 271.74" class="st13"/>
				</g>
				<g id="shape154-213" v:mID="154" v:groupContext="shape"
						transform="translate(271.742,268.908) rotate(90) scale(-1,1)">
					<title>Sheet.154</title>
					<ellipse cx="1.41732" cy="270.325" rx="1.41732" ry="1.41732" class="st19"/>
				</g>
				<g id="shape155-215" v:mID="155" v:groupContext="shape" transform="translate(273.159,257.569) rotate(90)">
					<title>Sheet.155</title>
					<path d="M0 271.74 L4.25 271.74" class="st13"/>
				</g>
				<g id="shape156-218" v:mID="156" v:groupContext="shape" transform="translate(271.742,260.404) rotate(90)">
					<title>Sheet.156</title>
					<ellipse cx="1.41732" cy="270.325" rx="1.41732" ry="1.41732" class="st19"/>
				</g>
				<g id="shape157-220" v:mID="157" v:groupContext="shape" transform="translate(-223.104,114.408) rotate(-55.7132)">
					<title>Sheet.157</title>
					<path d="M0 271.74 L7.55 271.74" class="st13"/>
				</g>
				<g id="shape158-223" v:mID="158" v:groupContext="shape" transform="translate(3.96851,-8.50394)">
					<title>Sheet.158</title>
					<path d="M1.7 269.76 L0 270.89 L1.42 271.74 L1.7 269.76 Z" class="st21"/>
				</g>
			</g>
		</g>
		<g id="shape174-225" v:mID="174" v:groupContext="shape" transform="translate(71.9498,-201.918)">
			<title>Sheet.174</title>
			<rect x="0" y="260.404" width="2.83465" height="11.3386" class="st21"/>
		</g>
		<g id="shape175-227" v:mID="175" v:groupContext="shape" transform="translate(62.0285,-201.918)">
			<title>Sheet.175</title>
			<rect x="0" y="260.404" width="2.83465" height="11.3386" class="st21"/>
		</g>
		<g id="shape176-229" v:mID="176" v:groupContext="shape" transform="translate(71.9498,-159.115)">
			<title>Sheet.176</title>
			<rect x="0" y="260.404" width="2.83465" height="11.3386" class="st21"/>
		</g>
		<g id="shape177-231" v:mID="177" v:groupContext="shape" transform="translate(62.0285,-159.115)">
			<title>Sheet.177</title>
			<rect x="0" y="260.404" width="2.83465" height="11.3386" class="st21"/>
		</g>
	</g>
</svg>
